<?xml version="1.0" encoding="UTF-8" standalone="no"?>
<!DOCTYPE svg PUBLIC "-//W3C//DTD SVG 1.1//EN" "http://www.w3.org/Graphics/SVG/1.1/DTD/svg11.dtd">
<svg width="100%" height="100%" viewBox="0 0 1445 350" version="1.1" xmlns="http://www.w3.org/2000/svg" xmlns:xlink="http://www.w3.org/1999/xlink" xml:space="preserve" xmlns:serif="http://www.serif.com/" style="fill-rule:evenodd;clip-rule:evenodd;stroke-linejoin:round;stroke-miterlimit:2;">
    <g id="Artboard1" transform="matrix(1,0,0,0.916168,-497.38,-343.35)">
        <rect x="497.38" y="374.768" width="1444.59" height="381.115" style="fill:none;"/>
        <g id="Laag-1" serif:id="Laag 1" transform="matrix(4.16667,0,0,4.54793,0.380296,-68.3278)">
            <g transform="matrix(1,0,0,1,243.209,168.405)">
                <path d="M0,-13.686L-5.865,7.82L-11.73,7.82L-19.571,-21.506L-13.314,-21.506L-8.211,-1.564L-2.933,-21.506L3.128,-21.506L8.211,-1.564L13.294,-21.506L19.551,-21.506L11.73,7.82L5.865,7.82L0,-13.686Z" style="fill:white;fill-rule:nonzero;"/>
            </g>
            <g transform="matrix(1,0,0,1,267.022,146.899)">
                <path d="M0,29.327L0,0.02L21.545,0L21.545,5.475L5.865,5.475L5.865,11.731L17.615,11.731L17.615,17.186L5.865,17.186L5.865,23.853L21.506,23.853L21.506,29.327L0,29.327Z" style="fill:white;fill-rule:nonzero;"/>
            </g>
            <g transform="matrix(1,0,0,1,300.741,151.514)">
                <path d="M0,20.137L9.58,20.137C12.33,20.098 13.737,18.684 13.803,15.895C13.737,14.018 12.35,13.04 9.639,12.962L0,12.962L0,20.137ZM0,7.156L8.211,7.156C10.57,7.116 11.782,5.898 11.848,3.499C11.782,2.066 10.59,1.309 8.27,1.231L0,1.231L0,7.156ZM15.387,9.247C17.954,10.968 19.316,13.203 19.473,15.953C19.212,21.48 16.26,24.406 10.616,24.732L-5.885,24.712L-5.885,-4.595L9.678,-4.595C14.617,-4.308 17.225,-1.434 17.498,4.027C17.406,6.634 16.703,8.374 15.387,9.247" style="fill:white;fill-rule:nonzero;"/>
            </g>
            <g transform="matrix(1,0,0,1,328.35,176.226)">
                <path d="M0,-29.327L8.33,-7.84L16.815,-29.327L23.071,-29.327L11.36,0L5.494,0L-6.257,-29.327L0,-29.327Z" style="fill:white;fill-rule:nonzero;"/>
            </g>
            <g transform="matrix(1,0,0,1,0,-518.784)">
                <rect x="356.29" y="665.664" width="5.846" height="29.346" style="fill:white;"/>
            </g>
            <g transform="matrix(1,0,0,1,383.895,175.248)">
                <path d="M0,-27.371C1.499,-26.719 2.9,-25.742 4.203,-24.438L0.293,-20.528C-1.01,-22.092 -2.835,-22.874 -5.181,-22.874C-7.527,-22.874 -9.026,-22.32 -9.678,-21.212C-10.329,-20.104 -10.329,-19.16 -9.678,-18.377C-9.026,-17.596 -7.527,-17.009 -5.181,-16.618C-2.704,-16.357 -0.456,-15.542 1.564,-14.174C3.584,-12.806 4.595,-10.622 4.595,-7.624C4.595,-5.278 3.513,-3.258 1.355,-1.563C-0.802,0.131 -3.311,0.978 -6.178,0.978C-8.902,0.978 -11.177,0.587 -13.001,-0.195C-14.826,-0.977 -16.391,-2.02 -17.693,-3.323L-13.783,-7.233C-12.48,-5.669 -10.265,-4.757 -7.136,-4.496C-4.529,-4.496 -2.906,-5.05 -2.262,-6.158C-1.616,-7.266 -1.616,-8.374 -2.262,-9.482C-2.906,-10.59 -4.529,-11.274 -7.136,-11.535C-9.482,-11.795 -11.633,-12.512 -13.588,-13.685C-15.543,-14.858 -16.521,-16.878 -16.521,-19.746C-16.521,-22.34 -15.413,-24.422 -13.19,-25.993C-10.968,-27.563 -8.681,-28.349 -6.335,-28.349C-3.61,-28.349 -1.499,-28.022 0,-27.371" style="fill:white;fill-rule:nonzero;"/>
            </g>
            <g transform="matrix(1,0,0,1,0,-518.784)">
                <rect x="393.729" y="665.664" width="5.846" height="29.346" style="fill:white;"/>
            </g>
            <g transform="matrix(1,0,0,1,437.661,146.899)">
                <path d="M0,29.327L0,0L1.955,0L20.333,18.378L20.333,0L26.198,0L26.198,29.327L24.047,29.327L5.865,11.144L5.865,29.327L0,29.327Z" style="fill:white;fill-rule:nonzero;"/>
            </g>
            <g transform="matrix(77.86,0,0,-77.86,130.9,116.265)">
                <path d="M0.449,0.202C0.432,0.2 0.415,0.198 0.398,0.195C0.381,0.192 0.364,0.188 0.347,0.184C0.33,0.179 0.313,0.173 0.297,0.166C0.279,0.159 0.262,0.15 0.246,0.141C0.228,0.131 0.211,0.12 0.195,0.108C0.177,0.095 0.16,0.08 0.144,0.065C0.142,0.063 0.139,0.061 0.137,0.058C0.121,0.042 0.107,0.025 0.093,0.008C0.073,-0.018 0.056,-0.045 0.042,-0.073C0.022,-0.114 0.008,-0.158 -0,-0.204L0.208,-0.204C0.217,-0.174 0.229,-0.147 0.246,-0.121C0.256,-0.106 0.267,-0.091 0.28,-0.077C0.285,-0.071 0.291,-0.066 0.297,-0.061C0.312,-0.046 0.329,-0.034 0.347,-0.023C0.363,-0.014 0.38,-0.007 0.398,-0.001C0.414,0.004 0.432,0.008 0.449,0.01C0.465,0.013 0.482,0.014 0.499,0.014L0.5,0.014C0.518,0.014 0.535,0.013 0.551,0.01C0.569,0.008 0.586,0.004 0.602,-0.001C0.62,-0.007 0.637,-0.014 0.653,-0.023C0.671,-0.034 0.688,-0.046 0.703,-0.061C0.709,-0.066 0.715,-0.071 0.72,-0.077C0.733,-0.091 0.744,-0.106 0.754,-0.121C0.771,-0.147 0.783,-0.174 0.792,-0.204L1,-0.204C0.992,-0.158 0.978,-0.114 0.958,-0.073C0.944,-0.045 0.927,-0.018 0.907,0.008C0.894,0.025 0.879,0.042 0.863,0.058C0.861,0.061 0.858,0.063 0.856,0.065C0.84,0.08 0.823,0.095 0.805,0.108C0.789,0.12 0.772,0.131 0.754,0.141C0.738,0.15 0.721,0.159 0.703,0.166C0.687,0.173 0.67,0.179 0.653,0.184C0.636,0.188 0.619,0.192 0.602,0.195C0.585,0.198 0.568,0.2 0.551,0.202C0.534,0.203 0.517,0.204 0.5,0.204C0.483,0.204 0.466,0.203 0.449,0.202Z" style="fill:url(#_Linear1);fill-rule:nonzero;"/>
            </g>
            <g transform="matrix(1,0,0,1,208.75,179.57)">
                <path d="M0,-31.67C-0.64,-28.09 -1.74,-24.74 -3.28,-21.6C-4.37,-19.38 -5.69,-17.26 -7.24,-15.26C-8.28,-13.91 -9.42,-12.6 -10.67,-11.35C-10.85,-11.18 -11.02,-11.02 -11.2,-10.85C-12.47,-9.62 -13.79,-8.49 -15.16,-7.47C-16.43,-6.52 -17.76,-5.68 -19.12,-4.91C-20.4,-4.19 -21.72,-3.54 -23.08,-2.98C-24.36,-2.45 -25.68,-1.98 -27.04,-1.59C-28.33,-1.22 -29.65,-0.92 -31,-0.68C-32.29,-0.45 -33.61,-0.28 -34.96,-0.17C-36.25,-0.06 -37.57,0 -38.92,0C-40.26,0 -41.58,-0.06 -42.88,-0.17C-44.23,-0.28 -45.55,-0.45 -46.84,-0.68C-48.19,-0.93 -49.51,-1.23 -50.8,-1.6C-52.15,-1.99 -53.47,-2.46 -54.76,-2.99C-56.11,-3.55 -57.43,-4.2 -58.71,-4.92C-60.08,-5.69 -61.4,-6.54 -62.67,-7.49C-64.05,-8.51 -65.36,-9.64 -66.63,-10.87C-66.81,-11.04 -66.99,-11.2 -67.16,-11.38C-68.41,-12.63 -69.55,-13.94 -70.59,-15.29C-72.14,-17.3 -73.46,-19.41 -74.55,-21.64C-76.09,-24.76 -77.19,-28.11 -77.83,-31.67L-61.59,-31.67C-60.93,-29.4 -59.98,-27.28 -58.71,-25.33C-57.94,-24.13 -57.07,-22.99 -56.08,-21.91C-55.65,-21.45 -55.2,-21.04 -54.76,-20.62C-53.53,-19.49 -52.21,-18.52 -50.8,-17.71C-49.55,-17.01 -48.23,-16.44 -46.84,-15.99C-45.58,-15.58 -44.25,-15.29 -42.88,-15.09L-42.88,-14.78L-34.96,-14.78L-34.96,-15.08C-33.58,-15.27 -32.26,-15.57 -31,-15.98C-29.61,-16.43 -28.29,-17 -27.04,-17.71C-25.63,-18.51 -24.31,-19.49 -23.08,-20.62C-22.63,-21.04 -22.18,-21.45 -21.76,-21.91C-20.76,-22.99 -19.89,-24.13 -19.12,-25.33C-17.86,-27.28 -16.9,-29.4 -16.25,-31.67L0,-31.67Z" style="fill:rgb(83,189,232);fill-rule:nonzero;"/>
            </g>
            <g transform="matrix(0,1,1,0,167.705,166.615)">
                <path d="M-1.835,2.125L-1.825,2.125L-1.825,-1.835L-2.135,-1.835C-1.955,-0.555 -1.835,0.755 -1.835,2.125" style="fill:rgb(83,189,232);fill-rule:nonzero;"/>
            </g>
            <g transform="matrix(1,0,0,1,173.79,164.791)">
                <path d="M0,-0.3L0,0L-3.9,0C-2.55,0 -1.26,-0.12 0,-0.3" style="fill:rgb(85,189,232);fill-rule:nonzero;"/>
            </g>
            <g transform="matrix(1,0,0,1,169.89,164.78)">
                <path d="M0,0.01L-0.06,0.01L-0.06,0C-0.04,0 -0.02,0.01 0,0.01" style="fill:rgb(85,189,232);fill-rule:nonzero;"/>
            </g>
            <g transform="matrix(1,0,0,1,241.258,132.149)">
                <path d="M0,-27.371C1.499,-26.719 2.9,-25.742 4.203,-24.438L0.293,-20.528C-1.01,-22.092 -2.835,-22.874 -5.181,-22.874C-7.527,-22.874 -9.026,-22.32 -9.678,-21.212C-10.33,-20.104 -10.33,-19.16 -9.678,-18.377C-9.026,-17.595 -7.527,-17.009 -5.181,-16.618C-2.705,-16.357 -0.457,-15.542 1.564,-14.174C3.584,-12.806 4.594,-10.622 4.594,-7.624C4.594,-5.278 3.516,-3.258 1.358,-1.563C-0.798,0.131 -3.311,0.978 -6.178,0.978C-8.902,0.978 -11.177,0.587 -13.001,-0.195C-14.826,-0.977 -16.391,-2.02 -17.694,-3.323L-13.784,-7.233C-12.48,-5.669 -10.265,-4.757 -7.136,-4.496C-4.529,-4.496 -2.903,-5.05 -2.258,-6.158C-1.613,-7.266 -1.613,-8.374 -2.258,-9.482C-2.903,-10.59 -4.529,-11.274 -7.136,-11.535C-9.482,-11.795 -11.633,-12.512 -13.588,-13.685C-15.543,-14.858 -16.521,-16.878 -16.521,-19.746C-16.521,-22.34 -15.41,-24.422 -13.188,-25.993C-10.965,-27.563 -8.681,-28.349 -6.334,-28.349C-3.61,-28.349 -1.499,-28.022 0,-27.371" style="fill:white;fill-rule:nonzero;"/>
            </g>
            <g transform="matrix(1,0,0,1,275.022,133.127)">
                <path d="M0,-29.327L0,-23.852L-9.775,-23.852L-9.775,0L-15.641,0L-15.641,-23.852L-25.416,-23.852L-25.416,-29.327L0,-29.327Z" style="fill:white;fill-rule:nonzero;"/>
            </g>
            <g transform="matrix(1,0,0,1,285.298,133.127)">
                <path d="M0,-29.327L0,-12.318C0,-10.102 0.651,-8.473 1.955,-7.43C3.258,-6.387 4.888,-5.866 6.843,-5.866C8.798,-5.866 10.427,-6.387 11.73,-7.43C13.034,-8.473 13.686,-10.102 13.686,-12.318L13.686,-29.327L19.551,-29.327L19.551,-10.753C19.551,-7.756 18.345,-5.214 15.934,-3.129C13.522,-1.043 10.492,0 6.843,0C3.193,0 0.163,-1.043 -2.249,-3.129C-4.66,-5.214 -5.865,-7.756 -5.865,-10.753L-5.865,-29.327L0,-29.327Z" style="fill:white;fill-rule:nonzero;"/>
            </g>
            <g transform="matrix(1,0,0,1,321.484,109.627)">
                <path d="M0,17.654C5.2,17.641 7.808,14.702 7.82,8.837C7.808,2.971 5.2,0.038 0,0.038L-5.436,0.038L-5.436,17.654L0,17.654ZM-11.301,23.5L-11.301,-5.846L0,-5.846C9.124,-5.846 13.686,-0.952 13.686,8.837C13.686,18.612 9.124,23.5 0,23.5L-11.301,23.5Z" style="fill:white;fill-rule:nonzero;"/>
            </g>
            <g transform="matrix(1,0,0,1,0,-604.982)">
                <rect x="340.965" y="708.763" width="5.846" height="29.346" style="fill:white;"/>
            </g>
            <g transform="matrix(1,0,0,1,366.393,109.274)">
                <path d="M0,18.379C2.594,18.379 4.705,17.499 6.335,15.739C7.964,13.98 8.778,11.796 8.778,9.19C8.778,6.583 7.964,4.4 6.335,2.64C4.705,0.88 2.581,0.001 -0.039,0.001C-2.633,0.001 -4.744,0.88 -6.373,2.64C-8.003,4.4 -8.817,6.583 -8.817,9.19C-8.817,11.796 -8.003,13.98 -6.373,15.739C-4.744,17.499 -2.62,18.379 0,18.379M-10.479,19.64C-13.281,16.831 -14.683,13.348 -14.683,9.19C-14.683,5.019 -13.281,1.532 -10.479,-1.27C-7.677,-4.072 -4.19,-5.474 -0.02,-5.474C4.151,-5.474 7.638,-4.072 10.44,-1.27C13.243,1.532 14.644,5.019 14.644,9.19C14.644,13.361 13.243,16.847 10.44,19.65C7.638,22.452 4.151,23.853 -0.02,23.853C-4.19,23.853 -7.677,22.449 -10.479,19.64" style="fill:white;fill-rule:nonzero;"/>
            </g>
            <g transform="matrix(0,21.2134,21.2134,0,169.718,129.444)">
                <ellipse cx="0.5" cy="0" rx="0.5" ry="0.5" style="fill:url(#_Linear2);"/>
            </g>
            <g transform="matrix(1,0,0,1,412.283,150.62)">
                <path d="M0,4.393C1.63,2.633 3.741,1.753 6.335,1.753C8.955,1.753 11.079,2.633 12.709,4.393C13.709,5.473 14.398,6.715 14.785,8.114L20.778,8.114C20.273,5.171 18.957,2.625 16.814,0.483C14.012,-2.319 10.525,-3.721 6.354,-3.721C2.184,-3.721 -1.303,-2.319 -4.105,0.483C-6.248,2.625 -7.564,5.171 -8.069,8.114L-2.076,8.114C-1.689,6.715 -1,5.473 0,4.393" style="fill:rgb(83,189,232);fill-rule:nonzero;"/>
            </g>
            <g transform="matrix(1,0,0,1,424.992,172.694)">
                <path d="M0,-4.582C-1.63,-2.822 -3.741,-1.943 -6.335,-1.943C-8.955,-1.943 -11.079,-2.822 -12.709,-4.582C-13.663,-5.613 -14.329,-6.793 -14.725,-8.114L-20.749,-8.114C-20.221,-5.26 -18.909,-2.782 -16.814,-0.682C-14.012,2.127 -10.525,3.532 -6.354,3.532C-2.184,3.532 1.303,2.13 4.105,-0.672C6.202,-2.769 7.515,-5.25 8.042,-8.114L2.016,-8.114C1.62,-6.793 0.954,-5.613 0,-4.582" style="fill:rgb(83,189,232);fill-rule:nonzero;"/>
            </g>
        </g>
        <g id="Layer1">
        </g>
        <g id="Layer2">
        </g>
    </g>
    <defs>
        <linearGradient id="_Linear1" x1="0" y1="0" x2="1" y2="0" gradientUnits="userSpaceOnUse" gradientTransform="matrix(1,0,0,-1,0,-6.27023e-06)"><stop offset="0" style="stop-color:rgb(83,189,232);stop-opacity:1"/><stop offset="1" style="stop-color:rgb(116,197,235);stop-opacity:1"/></linearGradient>
        <linearGradient id="_Linear2" x1="0" y1="0" x2="1" y2="0" gradientUnits="userSpaceOnUse" gradientTransform="matrix(0,1,1,0,0.499973,-0.499973)"><stop offset="0" style="stop-color:rgb(83,189,232);stop-opacity:1"/><stop offset="1" style="stop-color:rgb(116,197,235);stop-opacity:1"/></linearGradient>
    </defs>
</svg>
