<?xml version="1.0" encoding="UTF-8" standalone="no"?>
<!DOCTYPE svg PUBLIC "-//W3C//DTD SVG 1.1//EN" "http://www.w3.org/Graphics/SVG/1.1/DTD/svg11.dtd">
<svg width="100%" height="100%" viewBox="0 0 70 70" version="1.1" xmlns="http://www.w3.org/2000/svg" xmlns:xlink="http://www.w3.org/1999/xlink" xml:space="preserve" xmlns:serif="http://www.serif.com/" style="fill-rule:evenodd;clip-rule:evenodd;stroke-linejoin:round;stroke-miterlimit:2;">
    <g id="Artboard1" transform="matrix(0.920726,0,0,1,0,0)">
        <rect x="0" y="0" width="76" height="70" style="fill:none;"/>
        <g transform="matrix(1.0861,0,0,0.999999,-680.481,-342.012)">
            <g transform="matrix(1,0,0,1,1.79294,3.6549)">
                <path d="M646.469,384.207C646.175,384.207 645.88,384.098 645.651,383.877C645.181,383.425 645.167,382.678 645.62,382.209L651.013,376.609C651.465,376.14 652.212,376.126 652.682,376.578C653.151,377.03 653.165,377.777 652.713,378.246L647.319,383.846C647.088,384.086 646.779,384.207 646.469,384.207Z" style="fill:rgb(32,82,113);fill-rule:nonzero;"/>
            </g>
            <g transform="matrix(1,0,0,1,1.79294,3.6549)">
                <path d="M668.348,380.245C668.055,380.245 667.762,380.136 667.534,379.919C667.062,379.469 667.044,378.722 667.494,378.251L672.363,373.14C672.813,372.668 673.56,372.65 674.031,373.1C674.503,373.549 674.521,374.296 674.072,374.768L669.202,379.878C668.97,380.122 668.659,380.245 668.348,380.245Z" style="fill:rgb(32,82,113);fill-rule:nonzero;"/>
            </g>
            <g transform="matrix(1,0,0,1,1.79294,3.6549)">
                <path d="M662.817,381.229C662.592,381.229 662.364,381.165 662.162,381.03L656.668,377.356C656.126,376.994 655.98,376.261 656.343,375.719C656.705,375.177 657.437,375.032 657.979,375.394L663.474,379.068C664.016,379.43 664.161,380.163 663.799,380.705C663.572,381.045 663.198,381.229 662.817,381.229Z" style="fill:rgb(32,82,113);fill-rule:nonzero;"/>
            </g>
            <g transform="matrix(1,0,0,1,1.79294,3.6549)">
                <path d="M647.51,385.476C647.51,387.354 645.988,388.876 644.11,388.876C642.233,388.876 640.711,387.354 640.711,385.476C640.711,383.598 642.233,382.076 644.11,382.076C645.988,382.076 647.51,383.598 647.51,385.476Z" style="fill:rgb(32,82,113);fill-rule:nonzero;"/>
            </g>
            <g transform="matrix(1,0,0,1,1.79294,3.6549)">
                <path d="M644.111,387.991C642.724,387.991 641.596,386.863 641.596,385.476C641.596,384.09 642.724,382.961 644.111,382.961C644.546,382.961 644.957,383.072 645.314,383.269C645.709,383.485 646.041,383.804 646.27,384.191C646.495,384.567 646.625,385.006 646.625,385.476C646.625,386.863 645.497,387.991 644.111,387.991ZM647.817,383.33C647.416,382.638 646.826,382.068 646.118,381.692C645.518,381.372 644.835,381.191 644.111,381.191C641.748,381.191 639.826,383.114 639.826,385.476C639.826,387.838 641.748,389.761 644.111,389.761C646.473,389.761 648.395,387.838 648.395,385.476C648.395,384.695 648.185,383.961 647.817,383.33Z" style="fill:rgb(32,82,113);fill-rule:nonzero;"/>
            </g>
            <g transform="matrix(1,0,0,1,1.79294,3.6549)">
                <path d="M657.622,374.98C657.622,376.857 656.1,378.38 654.222,378.38C652.344,378.38 650.822,376.857 650.822,374.98C650.822,373.102 652.344,371.58 654.222,371.58C656.1,371.58 657.622,373.102 657.622,374.98Z" style="fill:rgb(32,82,113);fill-rule:nonzero;"/>
            </g>
            <g transform="matrix(1,0,0,1,1.79294,3.6549)">
                <path d="M656.161,376.58C655.699,377.138 655.001,377.495 654.222,377.495C653.785,377.495 653.376,377.384 653.018,377.187C652.623,376.971 652.292,376.651 652.061,376.264C651.836,375.887 651.707,375.448 651.707,374.98C651.707,373.593 652.836,372.465 654.222,372.465C655.609,372.465 656.737,373.593 656.737,374.98C656.737,375.112 656.726,375.242 656.706,375.369C656.635,375.824 656.442,376.239 656.161,376.58ZM654.222,370.695C651.86,370.695 649.937,372.618 649.937,374.98C649.937,375.761 650.147,376.495 650.516,377.126C650.917,377.818 651.506,378.387 652.214,378.764L652.215,378.764C652.814,379.084 653.497,379.265 654.222,379.265C655.482,379.265 656.619,378.717 657.402,377.847C657.934,377.259 658.306,376.521 658.445,375.706C658.485,375.47 658.507,375.228 658.507,374.98C658.507,372.618 656.584,370.695 654.222,370.695Z" style="fill:rgb(32,82,113);fill-rule:nonzero;"/>
            </g>
            <g transform="matrix(1,0,0,1,1.79294,3.6549)">
                <path d="M669.32,381.444C669.32,383.321 667.798,384.844 665.92,384.844C664.042,384.844 662.52,383.321 662.52,381.444C662.52,379.566 664.042,378.044 665.92,378.044C667.798,378.044 669.32,379.566 669.32,381.444Z" style="fill:rgb(32,82,113);fill-rule:nonzero;"/>
            </g>
            <g transform="matrix(1,0,0,1,1.79294,3.6549)">
                <path d="M665.921,383.959C664.534,383.959 663.405,382.83 663.405,381.444C663.405,381.312 663.415,381.182 663.435,381.055C663.506,380.6 663.7,380.185 663.981,379.844C664.443,379.286 665.142,378.929 665.921,378.929C666.382,378.929 666.815,379.054 667.187,379.273C667.575,379.499 667.897,379.829 668.117,380.222C668.319,380.584 668.435,381 668.435,381.444C668.435,382.83 667.307,383.959 665.921,383.959ZM669.675,379.381C669.288,378.68 668.711,378.098 668.013,377.706C667.394,377.358 666.68,377.159 665.921,377.159C664.659,377.159 663.524,377.707 662.739,378.575C662.207,379.165 661.835,379.903 661.696,380.718C661.656,380.954 661.635,381.196 661.635,381.444C661.635,383.806 663.557,385.729 665.921,385.729C668.283,385.729 670.205,383.806 670.205,381.444C670.205,380.697 670.013,379.994 669.675,379.381Z" style="fill:rgb(32,82,113);fill-rule:nonzero;"/>
            </g>
            <g transform="matrix(1,0,0,1,1.79294,3.6549)">
                <path d="M678.749,371.306C678.749,373.184 677.227,374.706 675.349,374.706C673.472,374.706 671.949,373.184 671.949,371.306C671.949,369.428 673.472,367.906 675.349,367.906C677.227,367.906 678.749,369.428 678.749,371.306Z" style="fill:rgb(32,82,113);fill-rule:nonzero;"/>
            </g>
            <g transform="matrix(1,0,0,1,1.79294,3.6549)">
                <path d="M675.35,373.821C674.992,373.821 674.654,373.747 674.346,373.611C673.93,373.431 673.574,373.142 673.312,372.778C673.011,372.364 672.834,371.855 672.834,371.305C672.834,369.919 673.962,368.791 675.35,368.791C676.736,368.791 677.864,369.919 677.864,371.305C677.864,372.693 676.736,373.821 675.35,373.821ZM675.35,367.021C672.986,367.021 671.064,368.943 671.064,371.305C671.064,372.2 671.339,373.032 671.811,373.72C672.262,374.379 672.892,374.907 673.631,375.231C674.157,375.463 674.739,375.591 675.35,375.591C677.712,375.591 679.634,373.669 679.634,371.305C679.634,368.943 677.712,367.021 675.35,367.021Z" style="fill:rgb(32,82,113);fill-rule:nonzero;"/>
            </g>
            <g transform="matrix(1,0,0,1,1.79294,3.6549)">
                <path d="M639.734,352.512C640.46,352.512 641.05,353.102 641.05,353.827C641.05,354.553 640.46,355.143 639.734,355.143C639.009,355.143 638.418,354.553 638.418,353.827C638.418,353.102 639.009,352.512 639.734,352.512ZM645.259,353.827C645.259,354.553 644.669,355.143 643.943,355.143C643.217,355.143 642.627,354.553 642.627,353.827C642.627,353.102 643.217,352.512 643.943,352.512C644.669,352.512 645.259,353.102 645.259,353.827ZM649.467,353.827C649.467,354.553 648.877,355.143 648.152,355.143C647.426,355.143 646.836,354.553 646.836,353.827C646.836,353.102 647.426,352.512 648.152,352.512C648.877,352.512 649.467,353.102 649.467,353.827ZM684.123,349.905L635.337,349.905C634.803,349.905 634.37,350.338 634.37,350.871L634.37,356.665C634.37,356.718 634.374,356.77 634.381,356.821C634.457,357.28 634.856,357.632 635.337,357.632L684.123,357.632C684.603,357.632 685.002,357.28 685.078,356.821C685.085,356.77 685.09,356.718 685.09,356.665L685.09,350.871C685.09,350.338 684.657,349.905 684.123,349.905Z" style="fill:rgb(32,82,113);fill-rule:nonzero;"/>
            </g>
            <g transform="matrix(1,0,0,1,1.79294,3.6549)">
                <path d="M683.91,394.428C683.91,395.091 683.37,395.63 682.708,395.63L636.752,395.63C636.089,395.63 635.55,395.091 635.55,394.428L635.55,352.286C635.55,351.624 636.089,351.085 636.752,351.085L682.708,351.085C683.37,351.085 683.91,351.624 683.91,352.286L683.91,394.428ZM682.708,348.725L636.752,348.725C634.787,348.725 633.19,350.323 633.19,352.286L633.19,394.428C633.19,396.392 634.787,397.99 636.752,397.99L682.708,397.99C684.672,397.99 686.27,396.392 686.27,394.428L686.27,352.286C686.27,350.323 684.672,348.725 682.708,348.725Z" style="fill:rgb(32,82,113);fill-rule:nonzero;"/>
            </g>
            <g transform="matrix(1,0,0,1,1.79294,3.6549)">
                <path d="M685.09,358.473L634.37,358.473C633.914,358.473 633.544,358.103 633.544,357.647C633.544,357.191 633.914,356.821 634.37,356.821L685.09,356.821C685.546,356.821 685.916,357.191 685.916,357.647C685.916,358.103 685.546,358.473 685.09,358.473Z" style="fill:rgb(32,82,113);fill-rule:nonzero;"/>
            </g>
        </g>
    </g>
</svg>
