<?xml version="1.0" encoding="UTF-8" standalone="no"?>
<!DOCTYPE svg PUBLIC "-//W3C//DTD SVG 1.1//EN" "http://www.w3.org/Graphics/SVG/1.1/DTD/svg11.dtd">
<svg width="100%" height="100%" viewBox="0 0 24 24" version="1.1" xmlns="http://www.w3.org/2000/svg" xmlns:xlink="http://www.w3.org/1999/xlink" xml:space="preserve" xmlns:serif="http://www.serif.com/" style="fill-rule:evenodd;clip-rule:evenodd;stroke-linejoin:round;stroke-miterlimit:2;">
    <g>
        <path d="M13.5,7L10.5,7C9.947,7 9.5,7.448 9.5,8L9.5,21C9.5,21.553 9.947,22 10.5,22L13.5,22C14.052,22 14.5,21.553 14.5,21L14.5,8C14.5,7.448 14.052,7 13.5,7Z" style="fill:rgb(32,82,113);fill-rule:nonzero;"/>
        <path d="M7,12L4,12C3.447,12 3,12.448 3,13L3,21C3,21.553 3.447,22 4,22L7,22C7.552,22 8,21.553 8,21L8,13C8,12.448 7.552,12 7,12Z" style="fill:rgb(32,82,113);fill-rule:nonzero;"/>
        <path d="M20,2L17,2C16.447,2 16,2.448 16,3L16,21C16,21.553 16.447,22 17,22L20,22C20.552,22 21,21.553 21,21L21,3C21,2.448 20.552,2 20,2Z" style="fill:rgb(32,82,113);fill-rule:nonzero;"/>
    </g>
</svg>
