<?xml version="1.0" encoding="UTF-8" standalone="no"?>
<!DOCTYPE svg PUBLIC "-//W3C//DTD SVG 1.1//EN" "http://www.w3.org/Graphics/SVG/1.1/DTD/svg11.dtd">
<svg width="100%" height="100%" viewBox="0 0 100 100" version="1.1" xmlns="http://www.w3.org/2000/svg" xmlns:xlink="http://www.w3.org/1999/xlink" xml:space="preserve" xmlns:serif="http://www.serif.com/" style="fill-rule:evenodd;clip-rule:evenodd;stroke-linejoin:round;stroke-miterlimit:2;">
    <g id="Artboard1" transform="matrix(1.02299,0,0,1.29414,-851.429,-578.497)">
        <rect x="832.295" y="447.012" width="97.753" height="77.271" style="fill:none;"/>
        <g transform="matrix(0.977528,0,0,0.772713,18.992,111.681)">
            <g transform="matrix(1,0,0,1,3,-1)">
                <path d="M904.693,460.365L859.832,460.365C857.498,460.365 855.6,462.265 855.6,464.599L855.6,470.926L857.891,470.926L857.891,464.599C857.891,463.528 858.762,462.656 859.832,462.656L904.693,462.656C905.764,462.656 906.636,463.528 906.636,464.599L906.636,476.462L908.929,476.462L908.929,464.599C908.929,462.265 907.029,460.365 904.693,460.365ZM906.636,478.822L906.636,495.074C906.636,496.145 905.764,497.016 904.693,497.016L900.146,497.016L900.146,499.307L904.693,499.307C907.029,499.307 908.929,497.408 908.929,495.074L908.929,478.822L906.636,478.822ZM871.333,497.016L871.333,499.307L897.786,499.307L897.786,497.016L871.333,497.016ZM859.832,497.016C858.762,497.016 857.891,496.145 857.891,495.074L857.891,473.286L855.6,473.286L855.6,495.074C855.6,496.705 856.527,498.124 857.882,498.83C858.466,499.135 859.129,499.307 859.832,499.307L868.973,499.307L868.973,497.016L859.832,497.016Z" style="fill:rgb(32,82,113);fill-rule:nonzero;"/>
            </g>
            <g transform="matrix(1,0,0,1,3,-1)">
                <path d="M882.88,493.645C882.88,493.986 882.604,494.263 882.263,494.263C881.922,494.263 881.646,493.986 881.646,493.645C881.646,493.304 881.922,493.028 882.263,493.028C882.604,493.028 882.88,493.304 882.88,493.645Z" style="fill:rgb(32,82,113);fill-rule:nonzero;"/>
            </g>
            <g transform="matrix(1,0,0,1,3,-1)">
                <path d="M882.263,494.174C881.973,494.174 881.735,493.937 881.735,493.645C881.735,493.354 881.973,493.117 882.263,493.117C882.554,493.117 882.793,493.354 882.793,493.645C882.793,493.937 882.554,494.174 882.263,494.174ZM882.263,491.883C881.292,491.883 880.501,492.673 880.501,493.645C880.501,494.617 881.292,495.408 882.263,495.408C883.235,495.408 884.027,494.617 884.027,493.645C884.027,492.673 883.235,491.883 882.263,491.883Z" style="fill:rgb(32,82,113);fill-rule:nonzero;"/>
            </g>
            <g transform="matrix(1,0,0,1,3,-1)">
                <path d="M888.819,505.808L875.708,505.808L877.104,498.259L887.423,498.259L888.819,505.808Z" style="fill:rgb(32,82,113);fill-rule:nonzero;"/>
            </g>
            <g transform="matrix(1,0,0,1,3,-1)">
                <path d="M878.057,499.405L886.468,499.405L887.442,504.662L877.085,504.662L878.057,499.405ZM889.932,505.526L889.772,504.662L888.782,499.307L888.55,498.05C888.448,497.506 887.974,497.112 887.422,497.112L877.104,497.112C876.552,497.112 876.077,497.506 875.978,498.05L875.745,499.307L874.753,504.662L874.581,505.6C874.519,505.934 874.609,506.28 874.828,506.542C875.045,506.802 875.367,506.955 875.707,506.955L888.821,506.955C889.454,506.955 889.967,506.44 889.967,505.808C889.967,505.711 889.955,505.615 889.932,505.526Z" style="fill:rgb(32,82,113);fill-rule:nonzero;"/>
            </g>
            <g transform="matrix(1,0,0,1,3,-1)">
                <path d="M891.824,506.954L872.703,506.954C872.07,506.954 871.557,506.441 871.557,505.808C871.557,505.176 872.07,504.662 872.703,504.662L891.824,504.662C892.456,504.662 892.969,505.176 892.969,505.808C892.969,506.441 892.456,506.954 891.824,506.954Z" style="fill:rgb(32,82,113);fill-rule:nonzero;"/>
            </g>
            <g transform="matrix(1,0,0,1,3,-1)">
                <path d="M868.973,488.358L868.973,490.649L856.744,490.649C856.132,490.649 855.63,490.168 855.6,489.563C855.598,489.543 855.598,489.524 855.598,489.504C855.598,489.484 855.598,489.464 855.6,489.445C855.63,488.838 856.132,488.358 856.744,488.358L868.973,488.358Z" style="fill:rgb(32,82,113);fill-rule:nonzero;"/>
            </g>
            <g transform="matrix(1,0,0,1,3,-1)">
                <rect x="871.333" y="488.358" width="26.453" height="2.291" style="fill:rgb(32,82,113);fill-rule:nonzero;"/>
            </g>
            <g transform="matrix(1,0,0,1,3,-1)">
                <path d="M908.927,489.504C908.927,490.136 908.415,490.649 907.782,490.649L900.146,490.649L900.146,488.358L907.783,488.358C908.416,488.359 908.927,488.87 908.927,489.504Z" style="fill:rgb(32,82,113);fill-rule:nonzero;"/>
            </g>
            <g transform="matrix(1,0,0,1,3,-1)">
                <path d="M868.973,475.626L868.973,489.553L856.745,489.553L856.745,473.286L866.634,473.286C867.926,473.286 868.973,474.334 868.973,475.626Z" style="fill:rgb(32,82,113);fill-rule:nonzero;"/>
            </g>
            <g transform="matrix(1,0,0,1,3,-1)">
                <path d="M907.783,478.822L907.783,489.553L900.146,489.553L900.146,481.168C900.146,479.873 901.197,478.822 902.493,478.822L907.783,478.822Z" style="fill:rgb(32,82,113);fill-rule:nonzero;"/>
            </g>
            <g transform="matrix(1,0,0,1,3,-1)">
                <path d="M907.783,464.599L907.783,476.462L902.493,476.462C899.898,476.462 897.786,478.573 897.786,481.168L897.786,489.553L871.333,489.553L871.333,475.626C871.333,473.034 869.225,470.926 866.634,470.926L856.745,470.926L856.745,464.599C856.745,462.894 858.127,461.511 859.832,461.511L904.693,461.511C906.399,461.511 907.783,462.894 907.783,464.599Z" style="fill:rgb(32,82,113);fill-rule:nonzero;"/>
            </g>
            <g transform="matrix(1,0,0,1,3,-1)">
                <path d="M867.059,503.764C867.059,504.328 866.601,504.786 866.037,504.786L846.894,504.786C846.33,504.786 845.872,504.328 845.872,503.764L845.872,476.476C845.872,475.912 846.33,475.455 846.894,475.455L866.037,475.455C866.601,475.455 867.059,475.912 867.059,476.476L867.059,503.764ZM866.634,473.286L846.297,473.286C845.004,473.286 843.957,474.334 843.957,475.626L843.957,504.615C843.957,505.907 845.004,506.955 846.297,506.955L866.634,506.955C867.926,506.955 868.973,505.907 868.973,504.615L868.973,475.626C868.973,474.334 867.926,473.286 866.634,473.286Z" style="fill:rgb(32,82,113);fill-rule:nonzero;"/>
            </g>
            <g transform="matrix(1,0,0,1,3,-1)">
                <path d="M866.259,499.883L846.671,499.883C845.578,499.883 844.691,498.997 844.691,497.903L844.691,476.254C844.691,475.16 845.578,474.274 846.671,474.274L866.259,474.274C867.352,474.274 868.239,475.16 868.239,476.254L868.239,497.903C868.239,498.997 867.352,499.883 866.259,499.883Z" style="fill:rgb(32,82,113);fill-rule:nonzero;"/>
            </g>
            <g transform="matrix(1,0,0,1,3,-1)">
                <path d="M856.465,503.875C855.84,503.875 855.332,503.367 855.332,502.742C855.332,502.118 855.84,501.609 856.465,501.609C857.09,501.609 857.598,502.118 857.598,502.742C857.598,503.367 857.09,503.875 856.465,503.875Z" style="fill:rgb(32,82,113);fill-rule:nonzero;"/>
            </g>
            <g transform="matrix(1,0,0,1,3,-1)">
                <path d="M908.062,504.331C907.511,504.331 907.062,503.882 907.062,503.331C907.062,502.78 907.511,502.331 908.062,502.331C908.614,502.331 909.062,502.78 909.062,503.331C909.062,503.882 908.614,504.331 908.062,504.331Z" style="fill:rgb(32,82,113);fill-rule:nonzero;"/>
            </g>
            <g transform="matrix(1,0,0,1,3,-1)">
                <path d="M914.286,503.85C914.286,504.409 913.831,504.865 913.271,504.865L902.853,504.865C902.293,504.865 901.838,504.409 901.838,503.85L901.838,481.926C901.838,481.366 902.293,480.911 902.853,480.911L913.271,480.911C913.831,480.911 914.286,481.366 914.286,481.926L914.286,503.85ZM913.631,478.822L902.493,478.822C901.197,478.822 900.146,479.873 900.146,481.168L900.146,504.608C900.146,505.903 901.197,506.955 902.493,506.955L913.631,506.955C914.928,506.955 915.978,505.903 915.978,504.608L915.978,481.168C915.978,479.873 914.928,478.822 913.631,478.822Z" style="fill:rgb(32,82,113);fill-rule:nonzero;"/>
            </g>
            <g transform="matrix(1,0,0,1,3,-1)">
                <path d="M913.513,500.558L902.611,500.558C901.532,500.558 900.658,499.683 900.658,498.605L900.658,481.684C900.658,480.605 901.532,479.731 902.611,479.731L913.513,479.731C914.592,479.731 915.466,480.605 915.466,481.684L915.466,498.605C915.466,499.683 914.592,500.558 913.513,500.558Z" style="fill:rgb(32,82,113);fill-rule:nonzero;"/>
            </g>
            <g transform="matrix(1,0,0,1,3,-1)">
                <path d="M914.547,501.75L901.577,501.75C901.12,501.75 900.751,501.381 900.751,500.924C900.751,500.468 901.12,500.098 901.577,500.098L914.547,500.098C915.004,500.098 915.373,500.468 915.373,500.924C915.373,501.381 915.004,501.75 914.547,501.75Z" style="fill:rgb(32,82,113);fill-rule:nonzero;"/>
            </g>
            <g transform="matrix(1,0,0,1,3,-1)">
                <path d="M866.793,500.482L846.137,500.482C845.681,500.482 845.311,500.112 845.311,499.656C845.311,499.2 845.681,498.83 846.137,498.83L866.793,498.83C867.249,498.83 867.619,499.2 867.619,499.656C867.619,500.112 867.249,500.482 866.793,500.482Z" style="fill:rgb(32,82,113);fill-rule:nonzero;"/>
            </g>
        </g>
    </g>
</svg>
