<?xml version="1.0" encoding="UTF-8" standalone="no"?>
<!DOCTYPE svg PUBLIC "-//W3C//DTD SVG 1.1//EN" "http://www.w3.org/Graphics/SVG/1.1/DTD/svg11.dtd">
<svg width="100%" height="100%" viewBox="0 0 81 81" version="1.1" xmlns="http://www.w3.org/2000/svg" xmlns:xlink="http://www.w3.org/1999/xlink" xml:space="preserve" xmlns:serif="http://www.serif.com/" style="fill-rule:evenodd;clip-rule:evenodd;stroke-linejoin:round;stroke-miterlimit:2;">
    <g id="Artboard1" transform="matrix(0.935539,0,0,1.10133,-891.871,-617.397)">
        <rect x="953.323" y="560.591" width="86.581" height="73.547" style="fill:none;"/>
        <g transform="matrix(1.0689,0,0,0.907992,-65.3409,52.116)">
            <g transform="matrix(1,0,0,1,1.86196,6.51685)">
                <path d="M996.191,598.356C992.772,601.776 987.229,601.776 983.81,598.356C980.391,594.938 980.391,589.394 983.81,585.976C987.229,582.557 992.772,582.557 996.191,585.976C999.609,589.394 999.609,594.938 996.191,598.356ZM1000.22,581.945C997.399,579.123 993.7,577.712 990,577.712C986.301,577.712 982.602,579.123 979.779,581.945C974.134,587.59 974.134,596.742 979.779,602.387C982.602,605.21 986.301,606.621 990,606.621C993.7,606.621 997.399,605.21 1000.22,602.387C1005.87,596.742 1005.87,587.59 1000.22,581.945Z" style="fill:rgb(28,83,114);fill-rule:nonzero;"/>
            </g>
            <g transform="matrix(1,0,0,1,1.86196,6.51685)">
                <path d="M1001.89,604.056C1001.14,604.803 1000.34,605.47 999.484,606.053L998.967,606.397C998.675,606.582 998.376,606.758 998.074,606.922C995.628,608.267 992.869,608.981 990,608.981C985.509,608.981 981.286,607.231 978.111,604.056C974.935,600.88 973.185,596.657 973.185,592.166C973.185,587.675 974.935,583.453 978.111,580.276C981.286,577.101 985.509,575.352 990,575.352C994.492,575.352 998.714,577.101 1001.89,580.276C1005.07,583.453 1006.81,587.675 1006.81,592.166C1006.81,595.162 1006.04,598.038 1004.57,600.564C1004.39,600.878 1004.2,601.187 1004,601.49L1003.68,601.949C1003.15,602.693 1002.55,603.397 1001.89,604.056ZM1012.32,588.22L1010.51,587.54C1009.92,587.417 1009.44,586.974 1009.26,586.389C1008.87,585.073 1008.34,583.814 1007.71,582.627C1007.41,582.09 1007.44,581.437 1007.77,580.926L1008.57,579.172C1008.93,578.374 1008.76,577.436 1008.14,576.817L1005.3,573.976C1004.71,573.386 1003.81,573.222 1003.05,573.567L1001.24,574.387C1000.73,574.722 1000.08,574.747 999.537,574.458C998.349,573.816 997.089,573.291 995.772,572.897C995.188,572.722 994.745,572.243 994.62,571.646L993.942,569.848C993.632,569.029 992.849,568.487 991.973,568.487L988.022,568.487C987.147,568.487 986.362,569.029 986.055,569.849L985.376,571.646C985.252,572.244 984.81,572.723 984.224,572.898C982.907,573.292 981.647,573.817 980.459,574.459C979.921,574.749 979.268,574.724 978.757,574.389L977.005,573.598C976.207,573.236 975.271,573.408 974.651,574.027L971.858,576.821C971.238,577.44 971.068,578.378 971.43,579.175L972.223,580.93C972.558,581.441 972.584,582.092 972.293,582.63C971.653,583.818 971.129,585.077 970.736,586.393C970.561,586.978 970.082,587.42 969.485,587.545L967.682,588.225C966.863,588.534 966.32,589.317 966.32,590.193L966.321,594.211C966.321,595.046 966.838,595.793 967.621,596.088L969.49,596.793C970.087,596.917 970.567,597.359 970.742,597.943C971.136,599.257 971.66,600.513 972.299,601.698C972.59,602.236 972.565,602.889 972.23,603.4L971.405,605.222C971.06,605.983 971.223,606.877 971.814,607.468L974.655,610.307C975.274,610.927 976.212,611.098 977.01,610.736L978.773,609.937C979.284,609.603 979.936,609.577 980.474,609.867C981.658,610.504 982.913,611.027 984.226,611.42C984.81,611.595 985.252,612.074 985.377,612.672L986.059,614.483C986.368,615.303 987.152,615.846 988.029,615.846L991.977,615.845C992.854,615.845 993.637,615.302 993.945,614.482L994.627,612.671C994.752,612.073 995.195,611.594 995.779,611.419C996.316,611.258 996.841,611.074 997.358,610.871C998.475,610.536 999.564,610.083 1000.61,609.512C1000.86,609.376 1001.1,609.234 1001.35,609.084L1001.94,608.505L1006.13,604.401L1006.13,604.4L1006.72,603.823C1006.88,603.585 1007.02,603.342 1007.16,603.098C1007.81,601.972 1008.32,600.788 1008.69,599.569C1008.9,599.036 1009.09,598.493 1009.26,597.939C1009.44,597.354 1009.91,596.912 1010.51,596.788L1012.38,596.084C1013.16,595.789 1013.68,595.042 1013.68,594.206L1013.68,590.188C1013.68,589.313 1013.14,588.529 1012.32,588.22Z" style="fill:rgb(28,83,114);fill-rule:nonzero;"/>
            </g>
            <g transform="matrix(1,0,0,1,1.86196,6.51685)">
                <path d="M988.029,616.672C986.816,616.672 985.714,615.91 985.286,614.775L984.604,612.963C984.589,612.923 984.577,612.883 984.569,612.841C984.506,612.541 984.284,612.3 983.989,612.211C982.639,611.807 981.325,611.263 980.083,610.595C979.81,610.447 979.482,610.461 979.225,610.628C979.189,610.651 979.152,610.672 979.114,610.689L977.351,611.488C976.247,611.989 974.929,611.75 974.07,610.891L971.23,608.053C970.401,607.223 970.169,605.949 970.652,604.881L971.477,603.059C971.495,603.02 971.515,602.982 971.539,602.947C971.707,602.691 971.719,602.363 971.572,602.09C970.902,600.849 970.356,599.533 969.95,598.181C969.862,597.885 969.621,597.664 969.322,597.601C969.28,597.593 969.238,597.581 969.198,597.566L967.329,596.861C966.232,596.448 965.495,595.383 965.495,594.211L965.494,590.193C965.494,588.982 966.256,587.88 967.39,587.452L969.193,586.772C969.233,586.757 969.274,586.745 969.316,586.737C969.615,586.674 969.856,586.452 969.944,586.157C970.349,584.801 970.895,583.483 971.566,582.238C971.713,581.967 971.7,581.639 971.532,581.383C971.508,581.347 971.488,581.309 971.47,581.27L970.677,579.516C970.177,578.411 970.417,577.093 971.274,576.237L974.067,573.443C974.924,572.586 976.242,572.345 977.346,572.845L979.098,573.637C979.137,573.654 979.174,573.675 979.21,573.699C979.466,573.866 979.794,573.879 980.067,573.732C981.311,573.06 982.63,572.513 983.987,572.106C984.283,572.018 984.505,571.778 984.567,571.478C984.576,571.436 984.588,571.394 984.603,571.354L985.282,569.557C985.707,568.423 986.809,567.661 988.022,567.661L991.973,567.661C993.185,567.661 994.287,568.422 994.714,569.556L995.393,571.354C995.408,571.394 995.42,571.435 995.429,571.477C995.491,571.776 995.714,572.017 996.008,572.105C997.365,572.511 998.684,573.058 999.93,573.731C1000.2,573.877 1000.53,573.864 1000.79,573.696C1000.82,573.673 1000.86,573.652 1000.9,573.634L1002.71,572.814C1003.78,572.332 1005.05,572.564 1005.88,573.392L1008.72,576.232C1009.58,577.09 1009.82,578.408 1009.32,579.512L1008.53,581.267C1008.51,581.306 1008.49,581.344 1008.47,581.379C1008.3,581.635 1008.28,581.962 1008.43,582.234C1009.1,583.479 1009.65,584.797 1010.05,586.152C1010.14,586.448 1010.38,586.67 1010.68,586.732C1010.72,586.74 1010.77,586.752 1010.81,586.768L1012.61,587.447C1013.74,587.875 1014.51,588.977 1014.51,590.188L1014.51,594.206C1014.51,595.377 1013.77,596.442 1012.67,596.856L1010.8,597.561C1010.76,597.576 1010.72,597.588 1010.68,597.597C1010.38,597.659 1010.14,597.881 1010.05,598.177C1009.89,598.716 1009.69,599.277 1009.47,599.842C1008.99,601.408 1008.3,602.898 1007.42,604.271C1007.17,604.654 1006.66,604.765 1006.27,604.517C1005.89,604.27 1005.78,603.758 1006.03,603.375C1006.84,602.122 1007.47,600.761 1007.9,599.33C1007.91,599.308 1007.92,599.286 1007.92,599.265C1008.13,598.734 1008.32,598.209 1008.47,597.703C1008.73,596.847 1009.41,596.199 1010.27,595.995L1012.09,595.311C1012.55,595.138 1012.85,594.694 1012.85,594.206L1012.85,590.188C1012.85,589.66 1012.52,589.18 1012.03,588.993L1010.28,588.334C1009.41,588.129 1008.73,587.48 1008.47,586.625C1008.1,585.378 1007.6,584.165 1006.98,583.019C1006.55,582.234 1006.58,581.288 1007.05,580.533L1007.82,578.831C1008.03,578.35 1007.93,577.775 1007.56,577.401L1004.71,574.561C1004.37,574.215 1003.84,574.118 1003.39,574.319L1001.63,575.116C1000.88,575.58 999.933,575.608 999.146,575.186C997.998,574.565 996.784,574.062 995.535,573.688C994.682,573.433 994.033,572.745 993.827,571.884L993.169,570.139C992.982,569.645 992.502,569.313 991.973,569.313L988.022,569.313C987.493,569.313 987.013,569.645 986.828,570.139L986.169,571.883C985.965,572.746 985.316,573.434 984.46,573.689C983.212,574.063 981.997,574.567 980.852,575.186C980.065,575.61 979.118,575.583 978.364,575.118L976.665,574.35C976.183,574.132 975.609,574.237 975.235,574.611L972.442,577.405C972.068,577.779 971.964,578.353 972.182,578.835L972.951,580.537C973.416,581.292 973.444,582.237 973.02,583.023C972.402,584.168 971.9,585.382 971.527,586.63C971.272,587.484 970.584,588.132 969.723,588.338L967.973,588.998C967.479,589.184 967.146,589.665 967.146,590.193L967.147,594.211C967.147,594.699 967.455,595.143 967.912,595.315L969.727,595.999C970.589,596.204 971.278,596.853 971.533,597.707C971.907,598.951 972.409,600.162 973.026,601.306C973.45,602.092 973.423,603.039 972.958,603.793L972.157,605.562C971.956,606.007 972.053,606.539 972.398,606.884L975.238,609.723C975.613,610.098 976.187,610.202 976.668,609.984L978.38,609.208C979.135,608.744 980.081,608.717 980.866,609.14C982.01,609.756 983.22,610.257 984.462,610.629C985.316,610.884 985.965,611.572 986.17,612.435L986.832,614.192C987.019,614.687 987.5,615.02 988.029,615.02L991.977,615.019C992.506,615.019 992.986,614.687 993.172,614.192L993.834,612.433C994.04,611.571 994.688,610.883 995.542,610.628C996.039,610.479 996.534,610.307 997.056,610.103C997.077,610.094 997.099,610.087 997.12,610.08C998.453,609.68 999.729,609.108 1000.91,608.38C1001.3,608.141 1001.81,608.262 1002.05,608.651C1002.29,609.04 1002.17,609.548 1001.78,609.787C1000.48,610.584 999.086,611.212 997.628,611.653C997.074,611.869 996.546,612.052 996.015,612.21C995.721,612.298 995.498,612.54 995.436,612.84C995.427,612.882 995.415,612.922 995.4,612.962L994.718,614.773C994.292,615.908 993.19,616.671 991.977,616.671L988.029,616.672Z" style="fill:rgb(28,83,114);fill-rule:nonzero;"/>
            </g>
            <g transform="matrix(1,0,0,1,1.86196,6.51685)">
                <path d="M1015.7,616.887L1014.47,618.119C1013.34,619.247 1011.51,619.247 1010.38,618.119L1001.93,609.668L1001.35,609.084L1000.74,608.482L998.812,606.549L998.967,606.397L999.484,606.053C1000.34,605.47 1001.14,604.803 1001.89,604.056C1002.55,603.397 1003.15,602.693 1003.68,601.949L1004,601.49L1004.2,601.298L1006.12,603.225L1006.72,603.823L1007.31,604.407L1015.7,612.801C1016.83,613.93 1016.83,615.759 1015.7,616.887Z" style="fill:rgb(28,83,114);fill-rule:nonzero;"/>
            </g>
            <g transform="matrix(1,0,0,1,1.86196,6.51685)">
                <path d="M1017.37,614.844C1017.37,615.837 1016.99,616.769 1016.28,617.471L1015.05,618.703C1014.35,619.405 1013.42,619.791 1012.43,619.791C1011.43,619.791 1010.5,619.405 1009.8,618.703L998.227,607.133C998.164,607.069 998.113,606.997 998.074,606.922C998.376,606.758 998.675,606.582 998.967,606.397L999.484,606.053L1001.91,608.482L1001.94,608.505L1001.95,608.52L1010.97,617.535C1011.36,617.924 1011.87,618.139 1012.43,618.139C1012.98,618.139 1013.49,617.924 1013.88,617.535L1015.12,616.303C1015.92,615.498 1015.92,614.19 1015.12,613.385L1006.15,604.418L1006.13,604.401L1003.68,601.949L1004,601.49C1004.2,601.187 1004.39,600.878 1004.57,600.564C1004.65,600.602 1004.72,600.651 1004.78,600.714L1016.28,612.217C1016.99,612.919 1017.37,613.852 1017.37,614.844Z" style="fill:rgb(28,83,114);fill-rule:nonzero;"/>
            </g>
            <g transform="matrix(1,0,0,1,1.86196,6.51685)">
                <path d="M996.191,598.356C992.772,601.776 987.229,601.776 983.81,598.356C980.391,594.938 980.391,589.394 983.81,585.976C987.229,582.557 992.772,582.557 996.191,585.976C999.609,589.394 999.609,594.938 996.191,598.356ZM1000.22,581.945C997.399,579.123 993.7,577.712 990,577.712C986.301,577.712 982.602,579.123 979.779,581.945C974.134,587.59 974.134,596.742 979.779,602.387C982.602,605.21 986.301,606.621 990,606.621C993.7,606.621 997.399,605.21 1000.22,602.387C1005.87,596.742 1005.87,587.59 1000.22,581.945Z" style="fill:rgb(28,83,114);fill-rule:nonzero;"/>
            </g>
        </g>
    </g>
</svg>
