<?xml version="1.0" encoding="UTF-8" standalone="no"?>
<!DOCTYPE svg PUBLIC "-//W3C//DTD SVG 1.1//EN" "http://www.w3.org/Graphics/SVG/1.1/DTD/svg11.dtd">
<svg width="100%" height="100%" viewBox="0 0 81 82" version="1.1" xmlns="http://www.w3.org/2000/svg" xmlns:xlink="http://www.w3.org/1999/xlink" xml:space="preserve" xmlns:serif="http://www.serif.com/" style="fill-rule:evenodd;clip-rule:evenodd;stroke-miterlimit:2;">
    <g transform="matrix(1,0,0,1,-987.017,-258.773)">
        <path d="M1045.34,320.702L989.96,320.702L989.96,261.716L1061.25,261.716L1061.25,311.927" style="fill:none;stroke:rgb(32,82,113);stroke-width:2.63px;"/>
        <path d="M989.96,271.478L1056.22,271.478" style="fill:none;stroke:rgb(32,82,113);stroke-width:2.63px;"/>
        <path d="M994.434,266.641L997.003,266.641" style="fill:none;stroke:rgb(32,82,113);stroke-width:2.63px;"/>
        <path d="M999.573,266.641L1002.14,266.641" style="fill:none;stroke:rgb(32,82,113);stroke-width:2.63px;"/>
        <path d="M1004.71,266.641L1007.28,266.641" style="fill:none;stroke:rgb(32,82,113);stroke-width:2.63px;"/>
        <rect x="996.989" y="278.507" width="30.7" height="7.451" style="fill:none;stroke:rgb(32,82,113);stroke-width:2.63px;stroke-linecap:square;"/>
        <path d="M996.989,285.958L1027.69,285.958" style="fill:none;stroke:rgb(32,82,113);stroke-width:2.63px;stroke-linecap:square;"/>
        <path d="M996.989,292.635L1030,292.635" style="fill:none;stroke:rgb(32,82,113);stroke-width:2.63px;stroke-linecap:square;"/>
        <path d="M996.989,299.311L1033.34,299.311" style="fill:none;stroke:rgb(32,82,113);stroke-width:2.63px;stroke-linecap:square;"/>
        <path d="M996.989,305.988L1016.09,305.988" style="fill:none;stroke:rgb(32,82,113);stroke-width:2.63px;stroke-linecap:square;"/>
        <path d="M1050.69,303.02L1064.07,329.336C1065.42,332.001 1064.26,335.257 1061.53,336.469C1058.8,337.681 1055.61,336.353 1054.54,333.56L1043.73,305.217" style="fill:none;stroke:rgb(32,82,113);stroke-width:2.63px;stroke-linecap:square;"/>
        <path d="M1045.33,300.346C1045.11,300.416 1044.87,300.473 1044.62,300.516C1042.11,300.95 1039.67,299.402 1038.7,297.05C1036.19,290.95 1039.7,285.958 1039.7,285.958C1039.7,285.958 1042.94,288.784 1046.69,291.664C1049.81,294.057 1049.1,299.197 1045.33,300.346Z" style="fill:none;stroke:rgb(32,82,113);stroke-width:2.63px;stroke-linecap:square;"/>
    </g>
</svg>
