<svg width="76" height="70" viewBox="0 0 76 70" fill="none" xmlns="http://www.w3.org/2000/svg">
<path d="M12.6644 16.6128V19.0237C12.6644 19.6556 12.151 20.169 11.5191 20.169C10.8873 20.169 10.3738 19.6556 10.3738 19.0237V17.8484C10.9125 17.1495 11.7463 16.6904 12.6644 16.6128Z" fill="#1C5372"/>
<path d="M60.8881 14.6088V14.9398C60.1835 14.5729 59.3944 14.3536 58.5713 14.3157C58.4325 13.549 57.7599 12.9656 56.9543 12.9656H14.3076C13.5011 12.9656 12.8294 13.549 12.6906 14.3157C11.8676 14.3536 11.0785 14.5729 10.3738 14.9398V14.6088C10.3738 12.4396 12.1384 10.675 14.3076 10.675H56.9543C59.1236 10.675 60.8881 12.4396 60.8881 14.6088Z" fill="#1C5372"/>
<path d="M60.8895 17.8484V19.0237C60.8895 19.6556 60.376 20.169 59.7442 20.169C59.1123 20.169 58.5989 19.6556 58.5989 19.0237V16.6128C59.5171 16.6904 60.3508 17.1495 60.8895 17.8484Z" fill="#1C5372"/>
<path d="M60.8917 31.0515V31.1806C60.7364 31.2039 60.5782 31.2175 60.419 31.2233C60.3627 31.2253 60.3064 31.2272 60.2501 31.2272C59.6785 31.2272 59.1252 31.1224 58.6069 30.9312C58.6671 30.3556 59.1553 29.9062 59.7464 29.9062C60.3783 29.9062 60.8917 30.4197 60.8917 31.0515Z" fill="#1C5372"/>
<path d="M10.8435 31.2233C10.6844 31.2175 10.5261 31.2039 10.3718 31.1806V31.0515C10.3718 30.4197 10.8843 29.9062 11.5171 29.9062C12.1072 29.9062 12.5925 30.3527 12.6556 30.9254C12.1402 31.1205 11.587 31.2272 11.0134 31.2272C10.9571 31.2272 10.9008 31.2253 10.8435 31.2233Z" fill="#1C5372"/>
<path d="M60.8929 33.485V48.9038C60.8929 49.5366 60.3794 50.0491 59.7476 50.0491H11.5171C10.8853 50.0491 10.3718 49.5366 10.3718 48.9038V33.485C10.4999 33.4977 10.629 33.5054 10.7601 33.5103C10.8445 33.5141 10.928 33.5151 11.0134 33.5151C11.5792 33.5151 12.1305 33.4462 12.6624 33.3142V47.7585H58.6023V33.321C59.1381 33.4491 59.6903 33.5151 60.2513 33.5151C60.3367 33.5151 60.4202 33.5141 60.5037 33.5103C60.6337 33.5054 60.7648 33.4967 60.8929 33.485Z" fill="#1C5372"/>
<path d="M60.0064 52.5108H11.2586C9.41155 52.5108 7.65187 51.6179 6.30372 50.0504H64.9622C63.6131 51.6179 61.8534 52.5108 60.0064 52.5108ZM68.102 48.3179C67.8953 47.9723 67.5216 47.7598 67.1198 47.7598H4.14513C3.74234 47.7598 3.36963 47.9723 3.16193 48.3179C2.95616 48.6624 2.94548 49.0914 3.13572 49.4457C4.93034 52.7991 7.96634 54.8014 11.2586 54.8014H60.0064C63.2976 54.8014 66.3356 52.7991 68.1292 49.4457C68.3185 49.0914 68.3088 48.6624 68.102 48.3179Z" fill="#1C5372"/>
<path d="M64.2386 28.7962C63.7115 29.7211 62.9603 30.4258 62.0586 30.8363C61.6879 31.0062 61.2977 31.1207 60.892 31.1799C60.7367 31.2022 60.5785 31.2158 60.4193 31.2217C60.363 31.2246 60.3067 31.2255 60.2504 31.2255C59.6787 31.2255 59.1255 31.1207 58.6072 30.9295C56.636 30.2035 55.1694 28.2274 55.1121 25.9543V25.9203C55.1102 25.8863 55.1102 25.8514 55.1102 25.8174C55.1102 25.799 55.1102 25.7805 55.1092 25.7621L55.1082 25.7475C55.1082 25.7378 55.1082 25.7301 55.1073 25.7213V25.7106L55.0869 25.2778C55.0869 25.2749 55.085 25.271 55.085 25.2671C55.085 25.2622 55.084 25.2564 55.084 25.2506V25.2419L55.083 25.2157C55.082 25.1972 55.0811 25.1778 55.0782 25.1603C55.0772 25.1419 55.0752 25.1225 55.0723 25.104C55.0461 24.8177 55.0054 24.5314 54.9452 24.2441C54.9374 24.2082 54.9297 24.1742 54.918 24.1383L52.6148 16.6007H58.3151C58.4102 16.6007 58.5043 16.6056 58.5975 16.6133C59.5167 16.6919 60.3504 17.151 60.8891 17.8499C61.0706 18.0857 61.22 18.3478 61.3258 18.6331C61.3501 18.6943 61.3792 18.7554 61.4132 18.8136L64.1308 23.3919C65.1335 25.0807 65.1742 27.1529 64.2386 28.7962Z" fill="#1C5372"/>
<path d="M52.7994 25.3758C52.814 25.5427 52.8227 25.7106 52.8227 25.8747V25.931C52.8101 28.2604 51.4193 30.3695 49.3179 31.0178C48.8734 31.1547 48.4104 31.2246 47.9426 31.2246C45.1793 31.2246 42.9324 28.7923 42.9324 25.8038C42.9324 25.766 42.9305 25.7301 42.9266 25.6922L42.0405 16.6007H50.2216L52.7121 24.7536C52.749 24.9361 52.7761 25.1157 52.7946 25.2972V25.3205C52.7975 25.3389 52.7985 25.3574 52.7994 25.3758Z" fill="#1C5372"/>
<path d="M40.6416 25.8572V25.8621C40.6134 28.8243 38.3772 31.2255 35.6324 31.2255C32.8875 31.2255 30.6513 28.8243 30.6222 25.8621L31.5258 16.6007H39.738L40.6416 25.8572Z" fill="#1C5372"/>
<path d="M29.2252 16.6007L28.3371 25.6922C28.3342 25.7291 28.3332 25.7669 28.3332 25.8029V25.8611C28.3031 28.8253 26.0669 31.2246 23.322 31.2246C20.6063 31.2246 18.4109 28.9301 18.3177 25.997C18.3196 25.9756 18.3245 25.9417 18.3303 25.9106L21.0547 16.6007H29.2252Z" fill="#1C5372"/>
<path d="M18.6682 16.6007L16.1127 25.3312C16.0991 25.3758 16.0894 25.4234 16.0806 25.4699C16.07 25.533 16.0554 25.6155 16.0457 25.7048C16.0457 25.7068 16.0447 25.7106 16.0447 25.7126C16.0331 25.7757 16.0224 25.8339 16.0098 26.1969C15.8642 28.3992 14.4957 30.2287 12.6554 30.9237C12.14 31.1188 11.5868 31.2246 11.0132 31.2246C10.9569 31.2246 10.9006 31.2236 10.8433 31.2217C10.6842 31.2158 10.526 31.2022 10.3716 31.1789C9.96593 31.1207 9.57478 31.0052 9.20013 30.8334C8.30331 30.4248 7.5511 29.7201 7.02505 28.7962C6.0894 27.151 6.13113 25.0807 7.13472 23.3909L9.85043 18.8136C9.88537 18.7554 9.91352 18.6943 9.93778 18.6321C10.0445 18.3468 10.193 18.0847 10.3755 17.8489C10.9132 17.1501 11.747 16.691 12.6661 16.6133C12.7593 16.6056 12.8534 16.6007 12.9485 16.6007H18.6682Z" fill="#1C5372"/>
<path d="M20.0896 43.9115C19.3422 43.9115 18.7346 43.304 18.7346 42.5566C18.7346 41.8092 19.3422 41.2017 20.0896 41.2017C20.8369 41.2017 21.4445 41.8092 21.4445 42.5566C21.4445 43.304 20.8369 43.9115 20.0896 43.9115Z" fill="#1C5372"/>
<path d="M40.9682 44.0588C40.3353 44.0588 39.8229 43.5463 39.8229 42.9135V36.0185C39.8229 35.3866 40.3353 34.8732 40.9682 34.8732C41.601 34.8732 42.1135 35.3866 42.1135 36.0185V42.9135C42.1135 43.5463 41.601 44.0588 40.9682 44.0588Z" fill="#1C5372"/>
<path d="M45.9049 44.0595C45.2721 44.0595 44.7596 43.547 44.7596 42.9142V38.3146C44.7596 37.6828 45.2721 37.1693 45.9049 37.1693C46.5377 37.1693 47.0502 37.6828 47.0502 38.3146V42.9142C47.0502 43.547 46.5377 44.0595 45.9049 44.0595Z" fill="#1C5372"/>
<path d="M36.6334 40.0197C36.6334 40.9844 35.8491 41.7677 34.8844 41.7677C33.9216 41.7677 33.1364 40.9844 33.1364 40.0197V39.085C33.1364 38.1212 33.9216 37.337 34.8844 37.337C35.8491 37.337 36.6334 38.1212 36.6334 39.085V40.0197ZM34.8844 35.0464C32.6579 35.0464 30.8458 36.8575 30.8458 39.085V40.0197C30.8458 42.2462 32.6579 44.0583 34.8844 44.0583C37.1119 44.0583 38.924 42.2462 38.924 40.0197V39.085C38.924 36.8575 37.1119 35.0464 34.8844 35.0464Z" fill="#1C5372"/>
<path d="M26.4871 44.0583C24.4032 44.0583 22.7086 42.3636 22.7086 40.2798V38.8249C22.7086 36.741 24.4032 35.0464 26.4871 35.0464C28.0458 35.0464 29.4241 35.982 29.9996 37.4302C30.2335 38.0174 29.9462 38.6832 29.3581 38.9171C28.7699 39.151 28.105 38.8637 27.8711 38.2755C27.644 37.7058 27.1014 37.337 26.4871 37.337C25.6669 37.337 24.9991 38.0047 24.9991 38.8249V40.2798C24.9991 41.0999 25.6669 41.7677 26.4871 41.7677C27.0335 41.7677 27.5353 41.4688 27.7964 40.9883C28.0982 40.4331 28.7941 40.2274 29.3493 40.5292C29.9055 40.8311 30.1112 41.527 29.8084 42.0831C29.1455 43.3012 27.8731 44.0583 26.4871 44.0583Z" fill="#1C5372"/>
<path d="M47.0508 38.3139H44.7603C44.7603 37.6791 44.2245 37.1638 43.5664 37.1638C42.8472 37.1638 42.1135 37.7442 42.1135 38.3139H39.8229C39.8229 36.4814 41.5728 34.8732 43.5664 34.8732C45.4882 34.8732 47.0508 36.4164 47.0508 38.3139Z" fill="#1C5372"/>
<path d="M50.8416 44.0595C50.2088 44.0595 49.6963 43.547 49.6963 42.9142V38.3146C49.6963 37.6828 50.2088 37.1693 50.8416 37.1693C51.4744 37.1693 51.9869 37.6828 51.9869 38.3146V42.9142C51.9869 43.547 51.4744 44.0595 50.8416 44.0595Z" fill="#1C5372"/>
<path d="M51.9876 38.3139H49.697C49.697 37.6791 49.1612 37.1638 48.5031 37.1638C47.7839 37.1638 47.0502 37.7442 47.0502 38.3139H44.7596C44.7596 36.4814 46.5086 34.8732 48.5031 34.8732C50.4249 34.8732 51.9876 36.4164 51.9876 38.3139Z" fill="#1C5372"/>
</svg>
