<?xml version="1.0" encoding="UTF-8" standalone="no"?>
<!DOCTYPE svg PUBLIC "-//W3C//DTD SVG 1.1//EN" "http://www.w3.org/Graphics/SVG/1.1/DTD/svg11.dtd">
<svg width="100%" height="100%" viewBox="0 0 66 45" version="1.1" xmlns="http://www.w3.org/2000/svg" xmlns:xlink="http://www.w3.org/1999/xlink" xml:space="preserve" xmlns:serif="http://www.serif.com/" style="fill-rule:evenodd;clip-rule:evenodd;stroke-linejoin:round;stroke-miterlimit:2;">
    <g transform="matrix(1,0,0,1,-2.35515,-12.9368)">
        <g transform="matrix(0.920726,0,0,1,0,0)">
            <g transform="matrix(1.0861,0,0,1,-3.87076,0.0257752)">
                <g transform="matrix(1,0,0,1,2.91925,2.23602)">
                    <path d="M12.664,16.613L12.664,19.024C12.664,19.656 12.151,20.169 11.519,20.169C10.887,20.169 10.374,19.656 10.374,19.024L10.374,17.848C10.913,17.15 11.746,16.69 12.664,16.613Z" style="fill:rgb(28,83,114);fill-rule:nonzero;"/>
                </g>
                <g transform="matrix(1,0,0,1,2.91925,2.23602)">
                    <path d="M60.888,14.609L60.888,14.94C60.184,14.573 59.394,14.354 58.571,14.316C58.432,13.549 57.76,12.966 56.954,12.966L14.308,12.966C13.501,12.966 12.829,13.549 12.691,14.316C11.868,14.354 11.079,14.573 10.374,14.94L10.374,14.609C10.374,12.44 12.138,10.675 14.308,10.675L56.954,10.675C59.124,10.675 60.888,12.44 60.888,14.609Z" style="fill:rgb(28,83,114);fill-rule:nonzero;"/>
                </g>
                <g transform="matrix(1,0,0,1,2.91925,2.23602)">
                    <path d="M60.89,17.848L60.89,19.024C60.89,19.656 60.376,20.169 59.744,20.169C59.112,20.169 58.599,19.656 58.599,19.024L58.599,16.613C59.517,16.69 60.351,17.15 60.89,17.848Z" style="fill:rgb(28,83,114);fill-rule:nonzero;"/>
                </g>
                <g transform="matrix(1,0,0,1,2.91925,2.23602)">
                    <path d="M60.892,31.052L60.892,31.181C60.736,31.204 60.578,31.218 60.419,31.223C60.363,31.225 60.306,31.227 60.25,31.227C59.679,31.227 59.125,31.122 58.607,30.931C58.667,30.356 59.155,29.906 59.746,29.906C60.378,29.906 60.892,30.42 60.892,31.052Z" style="fill:rgb(28,83,114);fill-rule:nonzero;"/>
                </g>
                <g transform="matrix(1,0,0,1,2.91925,2.23602)">
                    <path d="M10.844,31.223C10.684,31.218 10.526,31.204 10.372,31.181L10.372,31.052C10.372,30.42 10.884,29.906 11.517,29.906C12.107,29.906 12.593,30.353 12.656,30.925C12.14,31.121 11.587,31.227 11.013,31.227C10.957,31.227 10.901,31.225 10.844,31.223Z" style="fill:rgb(28,83,114);fill-rule:nonzero;"/>
                </g>
                <g transform="matrix(1,0,0,1,2.91925,2.23602)">
                    <path d="M60.893,33.485L60.893,48.904C60.893,49.537 60.379,50.049 59.748,50.049L11.517,50.049C10.885,50.049 10.372,49.537 10.372,48.904L10.372,33.485C10.5,33.498 10.629,33.505 10.76,33.51C10.845,33.514 10.928,33.515 11.013,33.515C11.579,33.515 12.131,33.446 12.662,33.314L12.662,47.759L58.602,47.759L58.602,33.321C59.138,33.449 59.69,33.515 60.251,33.515C60.337,33.515 60.42,33.514 60.504,33.51C60.634,33.505 60.765,33.497 60.893,33.485Z" style="fill:rgb(28,83,114);fill-rule:nonzero;"/>
                </g>
                <g transform="matrix(1,0,0,1,2.91925,2.23602)">
                    <path d="M60.006,52.511L11.259,52.511C9.412,52.511 7.652,51.618 6.304,50.05L64.962,50.05C63.613,51.618 61.853,52.511 60.006,52.511ZM68.102,48.318C67.895,47.972 67.522,47.76 67.12,47.76L4.145,47.76C3.742,47.76 3.37,47.972 3.162,48.318C2.956,48.662 2.945,49.091 3.136,49.446C4.93,52.799 7.966,54.801 11.259,54.801L60.006,54.801C63.298,54.801 66.336,52.799 68.129,49.446C68.319,49.091 68.309,48.662 68.102,48.318Z" style="fill:rgb(28,83,114);fill-rule:nonzero;"/>
                </g>
                <g transform="matrix(1,0,0,1,2.91925,2.23602)">
                    <path d="M64.239,28.796C63.712,29.721 62.96,30.426 62.059,30.836C61.688,31.006 61.298,31.121 60.892,31.18C60.737,31.202 60.579,31.216 60.419,31.222C60.363,31.225 60.307,31.226 60.25,31.226C59.679,31.226 59.126,31.121 58.607,30.93C56.636,30.203 55.169,28.227 55.112,25.954L55.112,25.92C55.11,25.886 55.11,25.851 55.11,25.817C55.11,25.799 55.11,25.781 55.109,25.762L55.108,25.748C55.108,25.738 55.108,25.73 55.107,25.721L55.107,25.711L55.087,25.278C55.087,25.275 55.085,25.271 55.085,25.267C55.085,25.262 55.084,25.256 55.084,25.251L55.084,25.242L55.083,25.216C55.082,25.197 55.081,25.178 55.078,25.16C55.077,25.142 55.075,25.123 55.072,25.104C55.046,24.818 55.005,24.531 54.945,24.244C54.937,24.208 54.93,24.174 54.918,24.138L52.615,16.601L58.315,16.601C58.41,16.601 58.504,16.606 58.597,16.613C59.517,16.692 60.35,17.151 60.889,17.85C61.071,18.086 61.22,18.348 61.326,18.633C61.35,18.694 61.379,18.755 61.413,18.814L64.131,23.392C65.134,25.081 65.174,27.153 64.239,28.796Z" style="fill:rgb(28,83,114);fill-rule:nonzero;"/>
                </g>
                <g transform="matrix(1,0,0,1,2.91925,2.23602)">
                    <path d="M52.799,25.376C52.814,25.543 52.823,25.711 52.823,25.875L52.823,25.931C52.81,28.26 51.419,30.369 49.318,31.018C48.873,31.155 48.41,31.225 47.943,31.225C45.179,31.225 42.932,28.792 42.932,25.804C42.932,25.766 42.931,25.73 42.927,25.692L42.041,16.601L50.222,16.601L52.712,24.754C52.749,24.936 52.776,25.116 52.795,25.297L52.795,25.321C52.798,25.339 52.798,25.357 52.799,25.376Z" style="fill:rgb(28,83,114);fill-rule:nonzero;"/>
                </g>
                <g transform="matrix(1,0,0,1,2.91925,2.23602)">
                    <path d="M40.642,25.857L40.642,25.862C40.613,28.824 38.377,31.226 35.632,31.226C32.888,31.226 30.651,28.824 30.622,25.862L31.526,16.601L39.738,16.601L40.642,25.857Z" style="fill:rgb(28,83,114);fill-rule:nonzero;"/>
                </g>
                <g transform="matrix(1,0,0,1,2.91925,2.23602)">
                    <path d="M29.225,16.601L28.337,25.692C28.334,25.729 28.333,25.767 28.333,25.803L28.333,25.861C28.303,28.825 26.067,31.225 23.322,31.225C20.606,31.225 18.411,28.93 18.318,25.997C18.32,25.976 18.325,25.942 18.33,25.911L21.055,16.601L29.225,16.601Z" style="fill:rgb(28,83,114);fill-rule:nonzero;"/>
                </g>
                <g transform="matrix(1,0,0,1,2.91925,2.23602)">
                    <path d="M18.668,16.601L16.113,25.331C16.099,25.376 16.089,25.423 16.081,25.47C16.07,25.533 16.055,25.616 16.046,25.705C16.046,25.707 16.045,25.711 16.045,25.713C16.033,25.776 16.022,25.834 16.01,26.197C15.864,28.399 14.496,30.229 12.655,30.924C12.14,31.119 11.587,31.225 11.013,31.225C10.957,31.225 10.901,31.224 10.843,31.222C10.684,31.216 10.526,31.202 10.372,31.179C9.966,31.121 9.575,31.005 9.2,30.833C8.303,30.425 7.551,29.72 7.025,28.796C6.089,27.151 6.131,25.081 7.135,23.391L9.85,18.814C9.885,18.755 9.914,18.694 9.938,18.632C10.045,18.347 10.193,18.085 10.376,17.849C10.913,17.15 11.747,16.691 12.666,16.613C12.759,16.606 12.853,16.601 12.948,16.601L18.668,16.601Z" style="fill:rgb(28,83,114);fill-rule:nonzero;"/>
                </g>
                <g transform="matrix(1,0,0,1,2.91925,2.23602)">
                    <path d="M20.09,43.911C19.342,43.911 18.735,43.304 18.735,42.557C18.735,41.809 19.342,41.202 20.09,41.202C20.837,41.202 21.445,41.809 21.445,42.557C21.445,43.304 20.837,43.911 20.09,43.911Z" style="fill:rgb(28,83,114);fill-rule:nonzero;"/>
                </g>
                <g transform="matrix(1,0,0,1,2.91925,2.23602)">
                    <path d="M40.968,44.059C40.335,44.059 39.823,43.546 39.823,42.914L39.823,36.019C39.823,35.387 40.335,34.873 40.968,34.873C41.601,34.873 42.114,35.387 42.114,36.019L42.114,42.914C42.114,43.546 41.601,44.059 40.968,44.059Z" style="fill:rgb(28,83,114);fill-rule:nonzero;"/>
                </g>
                <g transform="matrix(1,0,0,1,2.91925,2.23602)">
                    <path d="M45.905,44.06C45.272,44.06 44.76,43.547 44.76,42.914L44.76,38.315C44.76,37.683 45.272,37.169 45.905,37.169C46.538,37.169 47.05,37.683 47.05,38.315L47.05,42.914C47.05,43.547 46.538,44.06 45.905,44.06Z" style="fill:rgb(28,83,114);fill-rule:nonzero;"/>
                </g>
                <g transform="matrix(1,0,0,1,2.91925,2.23602)">
                    <path d="M36.633,40.02C36.633,40.984 35.849,41.768 34.884,41.768C33.922,41.768 33.136,40.984 33.136,40.02L33.136,39.085C33.136,38.121 33.922,37.337 34.884,37.337C35.849,37.337 36.633,38.121 36.633,39.085L36.633,40.02ZM34.884,35.046C32.658,35.046 30.846,36.858 30.846,39.085L30.846,40.02C30.846,42.246 32.658,44.058 34.884,44.058C37.112,44.058 38.924,42.246 38.924,40.02L38.924,39.085C38.924,36.858 37.112,35.046 34.884,35.046Z" style="fill:rgb(28,83,114);fill-rule:nonzero;"/>
                </g>
                <g transform="matrix(1,0,0,1,2.91925,2.23602)">
                    <path d="M26.487,44.058C24.403,44.058 22.709,42.364 22.709,40.28L22.709,38.825C22.709,36.741 24.403,35.046 26.487,35.046C28.046,35.046 29.424,35.982 30,37.43C30.234,38.017 29.946,38.683 29.358,38.917C28.77,39.151 28.105,38.864 27.871,38.276C27.644,37.706 27.101,37.337 26.487,37.337C25.667,37.337 24.999,38.005 24.999,38.825L24.999,40.28C24.999,41.1 25.667,41.768 26.487,41.768C27.034,41.768 27.535,41.469 27.796,40.988C28.098,40.433 28.794,40.227 29.349,40.529C29.906,40.831 30.111,41.527 29.808,42.083C29.145,43.301 27.873,44.058 26.487,44.058Z" style="fill:rgb(28,83,114);fill-rule:nonzero;"/>
                </g>
                <g transform="matrix(1,0,0,1,2.91925,2.23602)">
                    <path d="M47.051,38.314L44.76,38.314C44.76,37.679 44.225,37.164 43.566,37.164C42.847,37.164 42.114,37.744 42.114,38.314L39.823,38.314C39.823,36.481 41.573,34.873 43.566,34.873C45.488,34.873 47.051,36.416 47.051,38.314Z" style="fill:rgb(28,83,114);fill-rule:nonzero;"/>
                </g>
                <g transform="matrix(1,0,0,1,2.91925,2.23602)">
                    <path d="M50.842,44.06C50.209,44.06 49.696,43.547 49.696,42.914L49.696,38.315C49.696,37.683 50.209,37.169 50.842,37.169C51.474,37.169 51.987,37.683 51.987,38.315L51.987,42.914C51.987,43.547 51.474,44.06 50.842,44.06Z" style="fill:rgb(28,83,114);fill-rule:nonzero;"/>
                </g>
                <g transform="matrix(1,0,0,1,2.91925,2.23602)">
                    <path d="M51.988,38.314L49.697,38.314C49.697,37.679 49.161,37.164 48.503,37.164C47.784,37.164 47.05,37.744 47.05,38.314L44.76,38.314C44.76,36.481 46.509,34.873 48.503,34.873C50.425,34.873 51.988,36.416 51.988,38.314Z" style="fill:rgb(28,83,114);fill-rule:nonzero;"/>
                </g>
            </g>
        </g>
    </g>
</svg>
