<svg width="1440" height="913" viewBox="0 0 1440 913" fill="none" xmlns="http://www.w3.org/2000/svg">
<path fill-rule="evenodd" clip-rule="evenodd" d="M0 0H1084.66H1440V913H0V0Z" fill="#F4F8FB"/>
<path fill-rule="evenodd" clip-rule="evenodd" d="M1440 75.4042C1440 75.4042 1412.88 50.5111 1377.04 36.9305C1361.63 31.0881 1346.49 26.2427 1334.87 22.8758C1328.23 20.9513 1322.74 19.5098 1318.99 18.6411C1308.69 16.2527 1297.94 14.1116 1281.5 13.3224C1230.75 10.8857 1155.57 28.6985 1111.1 40.9685C1066.63 53.2385 838.315 113.655 838.315 113.655L659.833 161.718L156.348 290.768C156.348 290.768 120.963 299.57 92.1506 314.233C63.3379 328.896 30.9951 357.292 24.562 364.179C18.1289 371.067 0 392 0 392V0H1440V75.4042Z" fill="white"/>
</svg>
