<svg width="363" height="344" viewBox="0 0 363 344" fill="none" xmlns="http://www.w3.org/2000/svg">
<path d="M301.024 144.131C301.024 144.131 287.128 132.341 298.936 114.332C305.484 104.347 303.377 76.6594 283.161 84.817C262.942 92.9778 268.761 82.4013 257.348 86.9369C245.928 91.4725 240.674 98.5417 241.873 106.397C243.075 114.253 241.491 129.142 234.472 131.868C227.46 134.591 193.756 149.939 214.243 170.641C234.734 191.337 312.797 178.073 301.024 144.131Z" fill="#212957"/>
<path d="M283.161 84.8253C264.049 92.5376 268.189 83.5236 259.073 86.3339C260.102 88.1836 261.55 90.0834 263.484 92.0314C271.3 99.9315 286.154 103.009 300.874 101.921C301.207 90.6248 297.538 79.0262 283.161 84.8253Z" fill="#3B4572"/>
<path d="M289.653 145.823L284.576 214.698L258.916 209.405C258.916 209.405 241.232 174.295 241.232 167.719C241.232 166.458 243.337 135.718 245.023 134.874C249.741 132.515 254.704 133.611 255.547 133.611C270.708 133.611 277.443 136.561 277.443 136.561L289.653 145.823Z" fill="#3B47BC"/>
<path d="M256.812 206.038L229.862 291.937C229.862 291.937 271.13 308.781 303.128 299.514C335.13 290.251 303.128 222.038 303.128 222.038C303.128 222.038 293.868 200.143 287.128 197.616C280.39 195.089 256.812 206.038 256.812 206.038Z" fill="#3B47BC"/>
<path d="M245.023 134.879L226.911 178.252C226.911 178.252 215.968 189.62 231.963 198.041C236.456 200.402 249.65 171.092 249.65 171.092L245.023 134.879Z" fill="#3B47BC"/>
<path d="M273.881 135.404L299.247 177.727C299.247 177.727 289.232 185.399 292.601 190.452C293.888 192.381 301.867 190.876 301.867 190.876C301.867 190.876 305.657 194.437 314.627 180.519C317.368 176.253 296.394 143.291 296.394 143.291L273.881 135.404Z" fill="#3B47BC"/>
<path d="M302.24 215.217L299.698 220.249C299.698 220.249 298.711 218.002 299.622 216.191C300.41 214.631 301.38 212.722 301.38 212.722L302.24 215.217Z" fill="#F7B68B"/>
<path d="M300.103 209.992L299.348 213.581L295.878 215.194C295.878 215.194 295.087 214.427 297.371 212.247C297.881 211.751 298.56 207.788 298.56 207.788L300.103 209.992Z" fill="#F7B68B"/>
<path d="M293.391 195.945C293.391 195.945 298.711 201.166 302.39 208.588C306.072 216.006 304.043 216.87 303.811 219.416C303.592 221.966 303.632 225.557 302.357 222.832C301.08 220.107 301.743 215.129 301.145 213.679C300.55 212.232 298.662 210.721 297.149 208.983C295.633 207.238 294.757 205.849 295.201 208.107C295.652 210.37 295.809 211.122 295.662 211.93C295.522 212.74 295.407 214.015 294.313 214.072C293.225 214.126 293.6 212.329 293.453 211.577C293.303 210.825 291.078 207.347 290.725 206.477C290.366 205.606 290.647 202.426 290.614 200.398C290.594 199.399 290.941 197.009 291.529 194.819C292.13 192.565 291.872 194.204 293.391 195.945Z" fill="#F7B68B"/>
<path d="M229.44 181.183C229.44 181.183 202.379 173.038 198.295 172.779C194.207 172.515 186.541 169.055 193.527 176.777C200.52 184.498 225.255 193.191 231.126 195.922C236.995 198.653 236.599 185.816 229.44 181.183Z" fill="#F7B68B"/>
<path d="M271.777 116.916C273.146 108.735 278.243 119.409 278.243 119.409C278.243 119.409 274.486 129.801 276.688 137.844C275.561 138.395 263.84 150.888 259.465 138.417C266.209 131.029 270.882 122.289 271.777 116.916Z" fill="#F7B68B"/>
<path d="M276.41 126.962C274.662 128.658 272.554 129.932 270.14 130.616C268.5 131.075 266.84 131.233 265.203 131.127C268.794 125.821 271.166 120.583 271.777 116.917C273.146 108.735 278.243 119.409 278.243 119.409C278.243 119.409 277.057 122.676 276.41 126.962Z" fill="#EC9568"/>
<path d="M268.65 98.7657C268.65 98.7657 261.788 107.53 260.909 113.229C260.027 118.93 258.599 126.19 264.255 127.266C268.781 128.125 274.528 122.071 277.717 119.652C280.818 117.294 275.387 112.099 282.517 103.164C285.092 99.9339 270.944 102.722 268.65 98.7657Z" fill="#F7B68B"/>
<path d="M294.535 187.237L291.666 194.57L295.662 200.678C295.662 200.678 303.141 193.404 306.108 184.691C303.259 183.557 298.783 184.496 294.535 187.237Z" fill="#F7B68B"/>
<path d="M186.492 166.314L182.153 163.369C182.153 163.369 178.389 157.845 177.095 157.817C175.795 157.788 179.056 162.781 179.056 162.781L183.98 168.719L186.492 166.314Z" fill="#EC9568"/>
<path d="M184.646 167.837L180.304 164.89C180.304 164.89 176.543 159.368 175.246 159.34C173.952 159.31 177.21 164.306 177.21 164.306L182.13 170.243L184.646 167.837Z" fill="#EC9568"/>
<path d="M189.574 167.677L185.231 164.732C185.231 164.732 181.467 159.209 180.17 159.182C178.876 159.151 182.137 164.147 182.137 164.147L187.058 170.084L189.574 167.677Z" fill="#EC9568"/>
<path d="M193.563 174.206C193.563 174.206 196.282 169.529 193.416 166.566C189.028 162.025 184.64 159.378 186.891 162.925C189.149 166.472 188.593 165.1 184.493 165.982L180.392 166.864C180.392 166.864 176.759 164.257 175.412 163.644C174.066 163.035 173.262 164.18 173.262 164.18L178.977 169.358C178.977 169.358 184.944 172.015 186.274 173.405C187.603 174.792 194.259 177.966 194.259 177.966L193.563 174.206Z" fill="#F7B68B"/>
<path d="M122.267 232.61C122.267 232.61 132.327 230.929 134.5 233.085C136.036 234.609 134.902 241.73 134.902 241.73C134.902 241.73 123.554 243.118 122.087 241.591C120.62 240.064 114.118 235.74 122.267 232.61Z" fill="#EC9568"/>
<path d="M57.9728 145.341C57.9728 145.341 68.0171 146.498 71.2813 142.761C74.539 139.024 65.2658 139.992 69.3502 142.885C73.4345 145.777 82.8906 141.083 80.5478 136.356C78.1985 131.628 74.3494 129.515 70.4873 132.125C66.6251 134.734 69.6737 136.367 71.1767 133.751C72.6765 131.135 67.1316 124.491 62.0147 133.572C56.8978 142.653 59.4955 143.44 61.3351 137.382C63.1714 131.323 59.4138 127.349 56.3162 134.443C53.2219 141.537 57.5415 145.21 58.7407 142.031C59.9431 138.85 50.7386 131.806 49.8303 137.911C48.9252 144.015 48.1247 151.333 52.7808 151.564C57.437 151.794 47.0464 135.412 42.3935 148.414C37.7439 161.416 46.4386 157.673 46.8569 154.729C47.2784 151.785 31.1076 156.805 43.3966 161.476C55.6823 166.146 51.1732 160.762 52.307 157.799C53.4408 154.835 41.7041 162.381 47.7489 168.939C53.7937 175.497 59.7732 174.475 58.7309 167.781C57.6886 161.086 50.5556 164.356 52.6403 169.949C54.7249 175.544 51.1634 178.717 49.8172 179.255C48.4743 179.791 58.2506 184.173 60.3221 178.895C62.3937 173.616 65.8311 147.487 57.9728 145.341Z" fill="#212A54"/>
<path d="M78.5971 151.388L78.7343 148.595L73.2352 141.02C73.2352 141.02 72.7287 143.466 63.4556 144.435C49.6342 145.879 61.5997 149.778 62.1225 155.844C62.41 159.159 61.6422 161.509 60.6423 162.508C63.4197 167.663 66.8734 172.119 70.6147 175.423C70.6473 175.287 70.6637 175.21 70.6637 175.21L76.5255 177.695C82.3874 180.181 81.7143 173.834 81.7143 173.834L81.0346 162.051L83.3611 158.267L78.5971 151.388Z" fill="#F7B68B"/>
<path d="M78.5971 151.388L78.7343 148.595L73.2352 141.02C73.2352 141.02 72.7287 143.466 63.4556 144.435C49.6342 145.88 61.5997 149.779 62.1225 155.845C62.6453 161.909 59.649 164.781 58.1427 161.961C56.6331 159.141 51.8724 157.697 49.5917 160.549C47.3078 163.402 53.748 168.662 55.1987 169.337C56.6462 170.014 57.7081 169.627 57.7081 169.627C57.7081 169.627 52.4344 184.137 49.7061 191.303C51.2059 192.35 62.6747 193.221 67.2067 191.303C67.8896 185.157 70.6637 175.21 70.6637 175.21L76.5255 177.695C82.3874 180.181 81.7143 173.834 81.7143 173.834L81.0347 162.051L83.3611 158.267L78.5971 151.388Z" fill="#F7B68B"/>
<path d="M158.833 190.414H117.438C117.438 190.414 114.585 213.816 114.735 221.911C115.183 245.763 119.836 318.202 119.836 318.202L122.234 399.193L134.236 399.794L141.434 304.404L149.233 206.012L158.833 190.414Z" fill="#003E99"/>
<path d="M185.829 396.194L165.43 300.803L139.036 210.811V190.414H170.23L187.63 293.605L196.628 397.994L185.829 396.194Z" fill="#003E99"/>
<path d="M157.931 57.8195C157.931 57.8195 160.425 51.4832 160.032 49.4204C158.833 43.1207 154.334 46.7205 154.334 46.7205C154.334 46.7205 145.933 43.1207 140.833 46.7205C135.735 50.3203 133.334 52.42 133.334 54.8199C133.334 57.2196 136.634 53.0199 133.334 52.42C130.034 51.8201 127.936 56.6197 129.135 60.5194C130.334 64.4188 131.534 75.5178 138.134 76.7179C144.734 77.9177 157.931 57.8195 157.931 57.8195Z" fill="#212957"/>
<path d="M154.033 98.9031L153.131 83.3045L140.535 76.4049L138.735 102.203L145.933 115.401L154.033 98.9031Z" fill="#F7B68B"/>
<path d="M153.746 93.9307C144.303 92.1006 142.457 82.8847 142.225 77.3496L153.135 83.3232L153.746 93.9307Z" fill="#EC9568"/>
<path d="M157.634 52.4167C157.634 52.4167 163.032 62.6159 164.231 71.3152C165.43 80.0142 165.133 87.5134 160.634 87.2134C156.134 86.9135 145.933 84.2139 141.133 80.6144C136.333 77.0147 132.736 70.1154 135.735 68.6153C138.735 67.1155 140.833 70.4153 140.833 70.4153C140.833 70.4153 143.535 68.6153 141.735 64.4156C139.934 60.2162 130.034 53.9165 139.634 54.8167C149.233 55.7166 158.833 55.4166 157.634 52.4167Z" fill="#F7B68B"/>
<path d="M179.529 115.114C178.03 114.814 155.533 101.915 155.533 101.915L146.234 108.514L138.735 102.215L111.138 111.814L116.536 163.109L117.438 190.407H170.23L179.529 115.114Z" fill="#9AC7F7"/>
<path d="M146.234 108.522L154.033 98.923L155.533 101.923L152.534 117.521L146.234 108.522Z" fill="white"/>
<path d="M146.234 108.507L141.133 115.707L136.333 101.308L139.634 98.6082L146.234 108.507Z" fill="white"/>
<path d="M129.135 106.114L146.234 135.512L161.532 107.014" stroke="#EAF4FE" stroke-width="0.00299392" stroke-miterlimit="2"/>
<path d="M188.231 187.685C188.231 187.685 189.43 169.687 187.93 159.488C186.43 149.289 181.931 114.792 179.529 115.092C177.131 115.392 171.433 160.988 171.433 160.988L174.432 188.285L188.231 187.685Z" fill="#EAF4FE"/>
<path d="M186.43 187.684L185.231 233.88L180.431 248.279L178.932 231.78C177.432 233.58 176.229 234.48 175.932 232.08C175.631 229.681 177.432 226.681 177.729 225.481C178.03 224.281 179.83 222.481 179.83 222.481L174.432 188.284L186.43 187.684Z" fill="#F7B68B"/>
<path d="M161.957 169.899L150.504 168.254C149.39 168.094 148.769 167.073 149.129 165.987L156.353 143.986C156.709 142.899 157.912 142.141 159.029 142.301L170.479 143.947C171.593 144.107 172.214 145.127 171.857 146.214L164.633 168.215C164.274 169.302 163.071 170.06 161.957 169.899Z" fill="#281617"/>
<path d="M160.666 148.894L169.766 152.609C169.766 152.609 168.92 153.692 167.548 153.667C166.175 153.642 168.704 155.209 170.028 155.571C171.351 155.934 170.822 157.233 169.23 157.521C167.642 157.809 169.495 158.075 169.4 158.749C169.302 159.423 171.348 159.545 168.289 159.278C165.234 159.01 164.293 159.563 164.293 159.563L168.41 162.047C168.41 162.047 168.842 162.625 165.783 162.358C162.725 162.09 159.307 161.943 159.307 161.943C159.307 161.943 159.487 149.928 160.666 148.894Z" fill="#F7B68B"/>
<path d="M145.443 155.478C145.443 155.478 143.247 159.979 143.97 162.147C144.688 164.315 145.558 164.267 150.325 163.404C155.092 162.542 159.307 161.943 159.307 161.943C159.307 161.943 164.976 148.825 160.666 148.894C156.357 148.962 149.541 152.111 145.443 155.478Z" fill="#EC9568"/>
<path d="M109.896 154.672L146.593 153.066C146.593 153.066 147.998 160.836 146.263 164.944C144.525 169.052 126.541 174.495 116.14 175.064C105.737 175.633 98.9633 174.889 95.2089 172.285C91.4546 169.682 85.7169 161.747 93.0818 147.21C100.443 132.672 108.132 114.283 109.802 113.835C111.471 113.387 116.425 142.78 116.425 142.78L110.154 152.875L109.896 154.672Z" fill="#EAF4FE"/>
<path d="M75.64 187.369C75.64 187.369 111.638 202.197 119.362 211.283C127.083 220.37 141.173 230.22 137.464 236.49C133.755 242.761 124.796 244.904 122.221 243.266C119.643 241.627 77.594 222.156 75.64 187.369Z" fill="#FFAB01"/>
<path d="M41.4622 280.057C43.4619 280.203 56.156 280.427 58.3452 280.455C72.2451 280.623 84.2139 278.015 84.8804 274.592C87.6219 260.369 87.746 245.781 85.2399 231.55C84.6452 228.13 72.4967 225.522 58.306 225.695C56.0776 225.722 43.1188 225.947 41.0799 226.097C45.4322 243.835 45.5596 262.314 41.4622 280.057Z" fill="#8DCFFF"/>
<path d="M39.554 226.107C37.9987 226.126 36.9139 226.865 37.1295 227.757C40.9982 244.437 41.142 261.743 37.5641 278.427C37.368 279.322 38.443 280.06 39.9657 280.077C41.4883 280.1 42.8999 279.384 43.0894 278.489C46.7163 261.763 46.6052 244.418 42.7594 227.695C42.5503 226.798 41.1159 226.087 39.554 226.107Z" fill="#367082"/>
<path d="M38.9332 280.042C39.3449 280.173 42.0993 280.276 42.5797 280.285C45.6086 280.322 48.7258 277.649 49.327 274.284C51.8495 260.274 51.7907 245.908 49.131 231.897C48.5003 228.529 45.308 225.862 42.217 225.897C41.7269 225.906 38.9266 226.011 38.5051 226.144C42.8705 243.858 43.011 262.322 38.9332 280.042Z" fill="#7DC2F5"/>
<path d="M59.8679 302.979C59.8679 302.979 40.3872 306.364 36.1558 268.253C31.9212 230.142 30.6501 199.653 30.6501 199.653L54.787 186.949H75.9602C75.9602 186.949 90.0365 196.257 91.7323 204.725C93.4249 213.194 91.203 243.692 93.7451 249.621C96.2839 255.549 105.603 275.029 105.603 275.029L59.8679 302.979Z" fill="#FEC12F"/>
<path d="M115.477 239.091C115.464 239.067 115.448 239.04 115.438 239.018L115.477 236.762H208.875V239.018C208.875 239.018 208.891 239.067 208.875 239.091L208.636 239.511C207.437 241.466 205.284 241.818 202.817 241.818H121.535C119.068 241.818 116.921 241.466 115.716 239.511L115.477 239.091Z" fill="#D0DEE6"/>
<path d="M137.984 239.427C137.984 239.427 138 239.467 137.984 239.489L137.751 239.83C137.382 240.333 136.922 240.707 136.386 240.978H122.185C119.813 240.978 117.741 240.695 116.588 239.114L116.363 238.77C116.346 238.751 116.333 238.733 116.32 238.712L116.346 237.602H137.984V239.427Z" fill="#B6C2C9"/>
<path d="M197.262 237.235H150.593V238.83H197.262V237.235Z" fill="#B6C2C9"/>
<path d="M138.503 236.665L150.612 190.771C150.933 189.557 152.171 188.576 153.383 188.576H218.909C220.118 188.576 220.843 189.557 220.523 190.771L208.414 236.665H138.503Z" fill="#D7DFE2"/>
<path d="M175.559 212.613C174.939 214.953 176.344 216.854 178.68 216.854C181.026 216.854 183.424 214.953 184.045 212.613C184.663 210.267 183.268 208.365 180.921 208.365C178.579 208.365 176.177 210.267 175.559 212.613Z" fill="#B6C2C9"/>
<path d="M334.218 399.439H343.779L328.007 246.683H314.146L334.218 399.439Z" fill="#163F59"/>
<path d="M315.068 253.724L321.148 299.987L328.36 250.13L328.007 246.683H315.891L315.068 253.724Z" fill="#212957"/>
<path d="M206.143 399.439H215.7L199.928 246.683H186.068L206.143 399.439Z" fill="#163F59"/>
<path d="M186.992 253.724L193.07 299.987L200.284 250.13L199.928 246.683H187.812L186.992 253.724Z" fill="#212957"/>
<path d="M105.773 399.439H96.212L111.984 246.683H125.848L105.773 399.439Z" fill="#163F59"/>
<path d="M124.923 253.724L106.371 300.866L111.631 250.13L111.984 246.683H124.1L124.923 253.724Z" fill="#212957"/>
<path d="M213.861 241.749H98.6039V250.676H213.861V241.749Z" fill="#387BFF"/>
<path d="M339.404 241.749H208.532V250.676H339.404V241.749Z" fill="#7EB3FF"/>
<path d="M42.7692 207.859C42.7692 207.859 33.8588 195.895 30.5946 199.404C27.3337 202.913 15.1493 240.646 16.4268 252.464C17.7077 264.283 18.8644 273.38 27.3729 273.676C57.071 274.712 79.7277 256.936 79.7277 256.936L76.9797 239.663C76.9797 239.663 43.2038 243.014 40.7565 245.645C38.3091 248.277 42.3837 220.585 42.7692 207.859Z" fill="#FFAB01"/>
<path d="M75.9276 245.626L91.2488 233.972L94.0686 231.828C94.0686 231.828 99.424 239.26 97.4929 244.416C95.5618 249.571 80.4498 253.512 77.8979 253.181C75.3427 252.851 75.9276 245.626 75.9276 245.626Z" fill="#F7B68B"/>
<path d="M103.456 233.605L102.587 244.654L95.8919 247.017L94.0686 231.828L103.456 233.605Z" fill="#EC9568"/>
</svg>
